<svg width="141" height="107" viewBox="0 0 141 107" fill="none" xmlns="http://www.w3.org/2000/svg">
<g clip-path="url(#clip0_216_118)">
<mask id="mask0_216_118" style="mask-type:luminance" maskUnits="userSpaceOnUse" x="0" y="0" width="141" height="115">
<path d="M141 0H0V115H141V0Z" fill="white"/>
</mask>
<g mask="url(#mask0_216_118)">
<path d="M28.44 104.6L29.91 100.97H30.59V105.35H30.14V101.54H30.13L28.54 105.35H28.3L26.71 101.54H26.7V105.35H26.25V100.97H26.93L28.44 104.6Z" fill="black"/>
<path d="M33.28 105.36H32.79L34.68 100.98H35.11L36.99 105.36H36.49L36.01 104.21H33.74L33.28 105.36ZM33.92 103.8H35.85L34.88 101.47L33.92 103.8Z" fill="black"/>
<path d="M42.2999 104.71H42.3099V100.98H42.7599V105.36H42.1999L39.6499 101.59H39.6399V105.36H39.1899V100.98H39.7499L42.2999 104.71Z" fill="black"/>
<path d="M45.4299 105.36H44.9399L46.8299 100.98H47.2599L49.1399 105.36H48.6399L48.1599 104.21H45.8899L45.4299 105.36ZM46.0799 103.8H48.0099L47.0399 101.47L46.0799 103.8Z" fill="black"/>
<path d="M54.56 101.77C54.41 101.61 54.23 101.48 54.02 101.4C53.81 101.31 53.57 101.27 53.3 101.27C53.02 101.27 52.77 101.32 52.54 101.42C52.31 101.52 52.12 101.66 51.97 101.84C51.81 102.02 51.69 102.22 51.61 102.45C51.53 102.68 51.48 102.92 51.48 103.18C51.48 103.44 51.52 103.68 51.61 103.91C51.7 104.14 51.81 104.34 51.97 104.52C52.13 104.69 52.32 104.83 52.54 104.93C52.76 105.03 53.02 105.08 53.3 105.08C53.55 105.08 53.77 105.05 53.98 105C54.19 104.95 54.35 104.88 54.48 104.8V103.47H53.46V103.07H54.93V105.05C54.69 105.2 54.43 105.3 54.16 105.37C53.88 105.44 53.6 105.48 53.3 105.48C52.97 105.48 52.66 105.42 52.38 105.31C52.1 105.19 51.86 105.03 51.66 104.83C51.46 104.63 51.3 104.38 51.19 104.1C51.08 103.82 51.02 103.51 51.02 103.18C51.02 102.85 51.08 102.54 51.19 102.26C51.31 101.98 51.47 101.74 51.67 101.53C51.87 101.33 52.12 101.17 52.39 101.05C52.67 100.93 52.97 100.88 53.3 100.88C53.65 100.88 53.96 100.93 54.22 101.04C54.48 101.14 54.7 101.29 54.89 101.48L54.56 101.77Z" fill="black"/>
<path d="M58.05 104.96H60.4V105.36H57.6V100.98H60.32V101.38H58.05V102.88H60.17V103.28H58.05V104.96Z" fill="black"/>
<path d="M64.98 104.6L66.45 100.97H67.13V105.35H66.68V101.54H66.67L65.08 105.35H64.84L63.25 101.54H63.24V105.35H62.79V100.97H63.47L64.98 104.6Z" fill="black"/>
<path d="M70.3 104.96H72.65V105.36H69.86V100.98H72.58V101.38H70.3V102.88H72.42V103.28H70.3V104.96Z" fill="black"/>
<path d="M78.1701 104.71H78.1801V100.98H78.6301V105.36H78.0701L75.5201 101.59H75.5101V105.36H75.0601V100.98H75.6201L78.1701 104.71Z" fill="black"/>
<path d="M82.74 105.36H82.3V101.37H80.83V100.97H84.21V101.37H82.74V105.36Z" fill="black"/>
<path d="M92.69 101.77C92.54 101.61 92.36 101.48 92.15 101.4C91.94 101.31 91.7 101.27 91.43 101.27C91.15 101.27 90.9 101.32 90.67 101.42C90.44 101.52 90.25 101.66 90.1 101.84C89.94 102.02 89.82 102.22 89.74 102.45C89.66 102.68 89.61 102.92 89.61 103.18C89.61 103.44 89.65 103.68 89.74 103.91C89.83 104.14 89.94 104.34 90.1 104.52C90.26 104.69 90.45 104.83 90.67 104.93C90.89 105.03 91.15 105.08 91.43 105.08C91.68 105.08 91.9 105.05 92.11 105C92.32 104.95 92.48 104.88 92.61 104.8V103.47H91.59V103.07H93.06V105.05C92.82 105.2 92.56 105.3 92.29 105.37C92.01 105.44 91.73 105.48 91.43 105.48C91.1 105.48 90.79 105.42 90.51 105.31C90.23 105.19 89.99 105.03 89.79 104.83C89.59 104.63 89.43 104.38 89.32 104.1C89.21 103.82 89.15 103.51 89.15 103.18C89.15 102.85 89.21 102.54 89.32 102.26C89.44 101.98 89.6 101.74 89.8 101.53C90 101.33 90.25 101.17 90.52 101.05C90.8 100.93 91.1 100.88 91.43 100.88C91.78 100.88 92.09 100.93 92.35 101.04C92.61 101.14 92.83 101.29 93.02 101.48L92.69 101.77Z" fill="black"/>
<path d="M96.18 105.36H95.73V100.98H97.02C97.23 100.98 97.43 101 97.62 101.04C97.8 101.08 97.96 101.15 98.1 101.24C98.23 101.33 98.34 101.45 98.41 101.6C98.48 101.75 98.52 101.93 98.52 102.14C98.52 102.3 98.49 102.45 98.43 102.58C98.37 102.71 98.29 102.83 98.19 102.92C98.09 103.02 97.97 103.09 97.84 103.15C97.71 103.21 97.56 103.25 97.39 103.26L98.67 105.35H98.13L96.92 103.3H96.18V105.36ZM96.18 102.92H96.95C97.31 102.92 97.58 102.85 97.78 102.73C97.97 102.6 98.07 102.4 98.07 102.15C98.07 102.01 98.04 101.88 97.99 101.78C97.94 101.68 97.86 101.6 97.77 101.54C97.68 101.48 97.56 101.43 97.42 101.4C97.28 101.37 97.13 101.36 96.97 101.36H96.18V102.92Z" fill="black"/>
<path d="M105.32 103.17C105.32 103.5 105.26 103.81 105.15 104.09C105.03 104.37 104.87 104.61 104.67 104.82C104.47 105.02 104.22 105.18 103.95 105.3C103.67 105.42 103.37 105.47 103.04 105.47C102.71 105.47 102.41 105.41 102.13 105.3C101.85 105.18 101.61 105.02 101.41 104.82C101.21 104.62 101.05 104.37 100.93 104.09C100.81 103.81 100.76 103.5 100.76 103.17C100.76 102.84 100.82 102.53 100.93 102.25C101.05 101.97 101.21 101.73 101.41 101.52C101.61 101.32 101.86 101.16 102.13 101.04C102.41 100.92 102.71 100.87 103.04 100.87C103.37 100.87 103.67 100.93 103.95 101.04C104.23 101.16 104.47 101.32 104.67 101.52C104.87 101.72 105.03 101.97 105.15 102.25C105.26 102.52 105.32 102.83 105.32 103.17ZM104.85 103.17C104.85 102.91 104.81 102.67 104.73 102.44C104.65 102.21 104.53 102.01 104.37 101.83C104.21 101.65 104.02 101.52 103.8 101.41C103.58 101.31 103.32 101.26 103.04 101.26C102.76 101.26 102.51 101.31 102.28 101.41C102.06 101.51 101.86 101.65 101.71 101.83C101.55 102.01 101.43 102.21 101.35 102.44C101.27 102.67 101.23 102.91 101.23 103.17C101.23 103.43 101.27 103.67 101.35 103.9C101.43 104.13 101.55 104.33 101.71 104.51C101.87 104.68 102.06 104.82 102.28 104.92C102.5 105.02 102.76 105.07 103.04 105.07C103.32 105.07 103.57 105.02 103.8 104.92C104.02 104.82 104.22 104.68 104.37 104.51C104.53 104.34 104.65 104.14 104.73 103.9C104.81 103.67 104.85 103.42 104.85 103.17Z" fill="black"/>
<path d="M109.41 105.47C109.08 105.47 108.81 105.41 108.6 105.3C108.39 105.19 108.22 105.04 108.1 104.87C107.98 104.7 107.89 104.51 107.84 104.3C107.79 104.1 107.77 103.9 107.77 103.72V100.97H108.22V103.67C108.22 103.85 108.24 104.02 108.28 104.19C108.32 104.36 108.39 104.51 108.48 104.64C108.57 104.77 108.7 104.87 108.85 104.96C109 105.04 109.19 105.08 109.41 105.08C109.63 105.08 109.82 105.04 109.97 104.96C110.12 104.88 110.25 104.77 110.34 104.64C110.43 104.51 110.5 104.36 110.54 104.19C110.58 104.02 110.6 103.85 110.6 103.67V100.97H111.05V103.72C111.05 103.9 111.03 104.09 110.98 104.3C110.93 104.5 110.85 104.69 110.72 104.87C110.6 105.04 110.43 105.19 110.22 105.3C110.01 105.41 109.74 105.47 109.41 105.47Z" fill="black"/>
<path d="M113.74 100.97H114.98C115.2 100.97 115.4 100.99 115.59 101.04C115.77 101.09 115.93 101.16 116.06 101.26C116.19 101.36 116.29 101.48 116.36 101.63C116.43 101.78 116.47 101.95 116.47 102.15C116.47 102.35 116.43 102.52 116.36 102.67C116.29 102.82 116.19 102.94 116.06 103.04C115.93 103.14 115.77 103.21 115.59 103.26C115.41 103.31 115.2 103.33 114.98 103.33H114.2V105.37H113.75V100.97H113.74ZM114.19 102.94H114.94C115.29 102.94 115.56 102.87 115.74 102.74C115.92 102.6 116.01 102.41 116.01 102.15C116.01 101.88 115.92 101.68 115.73 101.55C115.54 101.42 115.28 101.36 114.94 101.36H114.19V102.94Z" fill="black"/>
<path d="M94.36 14.97C94.31 16.82 94.36 22.85 94.36 22.85H98.64V14.97C98.64 14.97 98.23 10.54 91.58 8.53999C91.32 2.00999 85.47 2.00999 85.47 2.00999C80.41 2.00999 57.58 2.00999 57.58 2.00999C57.58 2.00999 50.68 1.81999 50.68 8.60999C50.68 8.60999 44.74 8.88999 44.09 14.97L44.15 43.88C44.15 48.67 50.88 50.23 50.88 50.23C50.99 56.89 57.5 56.89 57.5 56.89H61.43H83.51C83.48 56.89 83.94 56.89 85.42 56.89C91.34 56.89 92.13 50.18 92.13 50.18C98.42 49.03 98.63 44.15 98.63 44.15V27.82H71.32V32.09H81.35V39.29H61.35V19.23H81.18V22.93H85.45V14.97H57.05L57.03 43.55H85.63V32.01H87.8V45.84H54.96L54.94 12.82H87.82L87.83 22.85H92.11V12.82C92.1 12.82 94.34 13.35 94.36 14.97ZM50.65 45.84C48.4 45.97 48.4 43.54 48.4 43.54V27.06V14.97C48.67 12.82 50.65 12.82 50.65 12.82V35.35V45.84ZM92.11 32.01H94.36V43.54C94.36 43.54 94.17 45.12 92.11 45.84V32.01ZM87.82 50.13C87.56 51.79 85.47 52.24 85.47 52.24H57.03C55.24 51.71 54.95 50.11 54.95 50.11L87.82 50.13ZM54.96 8.53999C54.96 8.53999 55.03 6.28999 57.04 6.28999C59.05 6.28999 85.48 6.28999 85.48 6.28999C85.48 6.28999 87.49 6.28999 87.83 8.53999H54.96Z" fill="black"/>
<path d="M16.35 83.52H20.67V89.15C20.13 89.5 19.42 89.79 18.55 90.01C17.68 90.23 16.72 90.35 15.67 90.35C14.48 90.35 13.41 90.13 12.46 89.7C11.51 89.26 10.7 88.68 10.04 87.95C9.37999 87.22 8.86999 86.37 8.50999 85.39C8.14999 84.41 7.96999 83.39 7.96999 82.31C7.96999 81.23 8.14999 80.2 8.50999 79.23C8.86999 78.25 9.37999 77.4 10.04 76.66C10.7 75.92 11.51 75.33 12.46 74.9C13.41 74.46 14.48 74.25 15.67 74.25C16.82 74.25 17.84 74.44 18.73 74.81C19.62 75.19 20.39 75.71 21.03 76.39L22.34 75.08C21.56 74.29 20.61 73.68 19.51 73.23C18.41 72.79 17.12 72.56 15.64 72.56C14.26 72.56 12.98 72.8 11.81 73.29C10.63 73.78 9.60999 74.45 8.74999 75.32C7.88999 76.18 7.20999 77.21 6.71999 78.4C6.22999 79.59 5.98999 80.89 5.98999 82.3C5.98999 83.71 6.22999 85.01 6.70999 86.2C7.18999 87.39 7.85999 88.41 8.70999 89.27C9.55999 90.13 10.58 90.81 11.77 91.3C12.96 91.79 14.25 92.03 15.64 92.03C16.9 92.03 18.11 91.88 19.28 91.58C20.45 91.28 21.54 90.83 22.55 90.22V81.85H16.35V83.52Z" fill="black"/>
<path d="M39.65 81.06H29.55V73.02H27.66V91.55H29.55V82.78H39.65V91.55H41.53V73.02H39.65V81.06Z" fill="black"/>
<path d="M62.31 75.31C61.45 74.45 60.43 73.77 59.25 73.28C58.07 72.79 56.79 72.55 55.42 72.55C54.04 72.55 52.76 72.79 51.59 73.28C50.41 73.77 49.39 74.44 48.53 75.31C47.67 76.17 46.99 77.2 46.5 78.39C46.01 79.58 45.77 80.88 45.77 82.29C45.77 83.7 46.01 85 46.5 86.19C46.99 87.38 47.66 88.4 48.53 89.26C49.39 90.12 50.41 90.8 51.59 91.29C52.77 91.78 54.05 92.02 55.42 92.02C56.8 92.02 58.08 91.78 59.25 91.29C60.43 90.8 61.45 90.13 62.31 89.26C63.17 88.4 63.85 87.37 64.34 86.19C64.83 85 65.07 83.7 65.07 82.29C65.07 80.88 64.83 79.58 64.34 78.39C63.85 77.2 63.17 76.18 62.31 75.31ZM62.56 85.38C62.21 86.36 61.71 87.21 61.04 87.94C60.38 88.67 59.57 89.25 58.62 89.69C57.67 90.13 56.6 90.34 55.41 90.34C54.22 90.34 53.15 90.12 52.2 89.69C51.25 89.25 50.44 88.67 49.78 87.94C49.12 87.21 48.61 86.36 48.26 85.38C47.91 84.4 47.74 83.38 47.74 82.3C47.74 81.22 47.91 80.19 48.26 79.22C48.61 78.24 49.11 77.39 49.78 76.65C50.44 75.91 51.25 75.32 52.2 74.89C53.15 74.45 54.22 74.24 55.41 74.24C56.6 74.24 57.66 74.46 58.62 74.89C59.58 75.32 60.38 75.91 61.04 76.65C61.7 77.39 62.21 78.25 62.56 79.22C62.91 80.2 63.08 81.22 63.08 82.3C63.08 83.38 62.91 84.41 62.56 85.38Z" fill="black"/>
<path d="M71.18 73.02H69.29V91.55H79.82V89.88H71.18V73.02Z" fill="black"/>
<path d="M96.5001 74.59V73.02H83.6001V74.7H94.1501L83.3101 89.98V91.55H96.6601V89.88H85.6901L96.5001 74.59Z" fill="black"/>
<path d="M108.06 73.02L100.05 91.55H102.12L103.39 88.48L104.84 84.96L106.13 81.84L106.14 81.83L108.92 75.12L110.96 80.04L113 84.96L114.19 87.84L115.75 91.55H117.84L109.89 73.02H108.06Z" fill="black"/>
<path d="M135.89 78.24C135.31 77.08 134.56 76.11 133.63 75.33C132.7 74.55 131.65 73.97 130.49 73.59C129.33 73.21 128.17 73.01 127.02 73.01H120.87V91.54H127.02C128.17 91.54 129.33 91.35 130.49 90.96C131.65 90.58 132.7 90 133.63 89.22C134.56 88.44 135.32 87.48 135.89 86.33C136.47 85.18 136.75 83.83 136.75 82.27C136.75 80.75 136.46 79.4 135.89 78.24ZM134.25 85.09C133.91 86 133.4 86.8 132.72 87.51C132.04 88.22 131.18 88.79 130.14 89.22C129.1 89.66 127.88 89.87 126.49 89.87H122.75V74.7H126.49C127.89 74.7 129.1 74.92 130.14 75.35C131.18 75.79 132.04 76.36 132.72 77.06C133.4 77.77 133.91 78.57 134.25 79.48C134.59 80.39 134.76 81.32 134.76 82.28C134.76 83.25 134.59 84.18 134.25 85.09Z" fill="black"/>
</g>
</g>
<defs>
<clipPath id="clip0_216_118">
<rect width="141" height="107" fill="white"/>
</clipPath>
</defs>
</svg>
