<svg width="131" height="21" viewBox="0 0 131 21" fill="none" xmlns="http://www.w3.org/2000/svg">
<path d="M107.01 12.9505L104.97 8.03053L107.01 12.9505Z" fill="white"/>
<path d="M98.85 12.9505L100.14 9.83053L98.85 12.9505Z" fill="white"/>
<path d="M10.36 11.5105H14.68V17.1405C14.14 17.4905 13.43 17.7805 12.56 18.0005C11.69 18.2205 10.73 18.3405 9.68 18.3405C8.49 18.3405 7.42 18.1205 6.47 17.6905C5.52 17.2505 4.71 16.6705 4.05 15.9405C3.39 15.2105 2.88 14.3605 2.52 13.3805C2.16 12.4005 1.98 11.3805 1.98 10.3005C1.98 9.22053 2.16 8.19054 2.52 7.22054C2.88 6.24054 3.39 5.39054 4.05 4.65054C4.71 3.91054 5.52 3.32053 6.47 2.89053C7.42 2.45053 8.49 2.24053 9.68 2.24053C10.83 2.24053 11.85 2.43053 12.74 2.80053C13.63 3.18053 14.4 3.70053 15.04 4.38053L16.35 3.07053C15.57 2.28053 14.62 1.67054 13.52 1.22054C12.42 0.780535 11.13 0.550529 9.65 0.550529C8.27 0.550529 6.99 0.790533 5.82 1.28053C4.64 1.77053 3.62 2.44053 2.76 3.31053C1.9 4.17053 1.22 5.20053 0.73 6.39053C0.24 7.58053 0 8.88054 0 10.2905C0 11.7005 0.24 13.0005 0.72 14.1905C1.2 15.3805 1.87 16.4005 2.72 17.2605C3.57 18.1205 4.59 18.8005 5.78 19.2905C6.97 19.7805 8.26 20.0205 9.65 20.0205C10.91 20.0205 12.12 19.8705 13.29 19.5705C14.46 19.2705 15.55 18.8205 16.56 18.2105V9.84053H10.36V11.5105Z" fill="white"/>
<path d="M33.66 9.05053H23.56V1.01053H21.67V19.5405H23.56V10.7705H33.66V19.5405H35.54V1.01053H33.66V9.05053Z" fill="white"/>
<path d="M56.32 3.30053C55.46 2.44053 54.44 1.76053 53.26 1.27053C52.08 0.780531 50.8 0.540535 49.43 0.540535C48.05 0.540535 46.77 0.780531 45.6 1.27053C44.42 1.76053 43.4 2.43053 42.54 3.30053C41.68 4.16053 41 5.19053 40.51 6.38053C40.02 7.57053 39.78 8.87053 39.78 10.2805C39.78 11.6905 40.02 12.9905 40.51 14.1805C41 15.3705 41.67 16.3905 42.54 17.2505C43.4 18.1105 44.42 18.7905 45.6 19.2805C46.78 19.7705 48.06 20.0105 49.43 20.0105C50.81 20.0105 52.09 19.7705 53.26 19.2805C54.44 18.7905 55.46 18.1205 56.32 17.2505C57.18 16.3905 57.86 15.3605 58.35 14.1805C58.84 12.9905 59.08 11.6905 59.08 10.2805C59.08 8.87053 58.84 7.57053 58.35 6.38053C57.86 5.19053 57.18 4.17053 56.32 3.30053ZM56.57 13.3705C56.22 14.3505 55.72 15.2005 55.05 15.9305C54.39 16.6605 53.58 17.2405 52.63 17.6805C51.68 18.1205 50.61 18.3305 49.42 18.3305C48.23 18.3305 47.16 18.1105 46.21 17.6805C45.26 17.2405 44.45 16.6605 43.79 15.9305C43.13 15.2005 42.62 14.3505 42.27 13.3705C41.92 12.3905 41.75 11.3705 41.75 10.2905C41.75 9.21053 41.92 8.18053 42.27 7.21053C42.62 6.23053 43.12 5.38053 43.79 4.64053C44.45 3.90053 45.26 3.31053 46.21 2.88053C47.16 2.44053 48.23 2.23053 49.42 2.23053C50.61 2.23053 51.67 2.45053 52.63 2.88053C53.59 3.31053 54.39 3.90053 55.05 4.64053C55.71 5.38053 56.22 6.24053 56.57 7.21053C56.92 8.19053 57.09 9.21053 57.09 10.2905C57.09 11.3705 56.92 12.4005 56.57 13.3705Z" fill="white"/>
<path d="M65.19 1.01053H63.3V19.5405H73.83V17.8705H65.19V1.01053Z" fill="white"/>
<path d="M90.51 2.58053V1.01053H77.61V2.69053H88.16L77.32 17.9705V19.5405H90.67V17.8705H79.7L90.51 2.58053Z" fill="white"/>
<path d="M102.07 1.01053L94.06 19.5405H96.13L97.4 16.4705L98.85 12.9505L100.14 9.83053L100.15 9.82053L102.93 3.11053L104.97 8.03053L107.01 12.9505L108.2 15.8305L109.76 19.5405H111.85L103.9 1.01053H102.07Z" fill="white"/>
<path d="M129.9 6.23053C129.32 5.07053 128.57 4.10053 127.64 3.32053C126.71 2.54053 125.66 1.96053 124.5 1.58053C123.34 1.20053 122.18 1.00053 121.03 1.00053H114.88V19.5305H121.03C122.18 19.5305 123.34 19.3405 124.5 18.9505C125.66 18.5705 126.71 17.9905 127.64 17.2105C128.57 16.4305 129.33 15.4705 129.9 14.3205C130.48 13.1705 130.76 11.8205 130.76 10.2605C130.76 8.74053 130.47 7.39053 129.9 6.23053ZM128.26 13.0805C127.92 13.9905 127.41 14.7905 126.73 15.5005C126.05 16.2105 125.19 16.7805 124.15 17.2105C123.11 17.6505 121.89 17.8605 120.5 17.8605H116.76V2.69053H120.5C121.9 2.69053 123.11 2.91053 124.15 3.34053C125.19 3.78053 126.05 4.35053 126.73 5.05053C127.41 5.76053 127.92 6.56054 128.26 7.47054C128.6 8.38054 128.77 9.31053 128.77 10.2705C128.77 11.2405 128.6 12.1705 128.26 13.0805Z" fill="white"/>
<path d="M100.15 9.82053L100.14 9.83053L100.15 9.82053Z" fill="white"/>
</svg>
