<svg width="100" height="100" viewBox="0 0 100 100" fill="none" xmlns="http://www.w3.org/2000/svg">
<g clip-path="url(#clip0_236_48)">
<path d="M50 99.5C77.3381 99.5 99.5 77.3381 99.5 50C99.5 22.6619 77.3381 0.5 50 0.5C22.6619 0.5 0.5 22.6619 0.5 50C0.5 77.3381 22.6619 99.5 50 99.5Z" stroke="#1962FF"/>
<path d="M50 99.5C77.3381 99.5 99.5 77.3381 99.5 50C99.5 22.6619 77.3381 0.5 50 0.5C22.6619 0.5 0.5 22.6619 0.5 50C0.5 77.3381 22.6619 99.5 50 99.5Z" stroke="black" stroke-opacity="0.2"/>
<path d="M64.153 69.012H64.135C63.987 69.012 63.84 69.005 63.697 68.991H63.671C58.2648 68.3957 53.0721 66.547 48.506 63.592C44.2646 60.8877 40.6657 57.289 37.961 53.048C34.9977 48.4602 33.1504 43.2422 32.567 37.812C32.567 37.812 32.567 37.804 32.567 37.8C32.567 37.796 32.567 37.792 32.567 37.789C32.5095 37.1558 32.5773 36.5176 32.7665 35.9107C32.9557 35.3038 33.2626 34.7401 33.6697 34.2518C34.0768 33.7635 34.5762 33.3602 35.1392 33.065C35.7022 32.7697 36.3178 32.5883 36.951 32.531C37.099 32.518 37.246 32.512 37.382 32.512H42.468C43.6331 32.5166 44.7578 32.9394 45.6375 33.7034C46.5171 34.4675 47.0932 35.522 47.261 36.675V36.689C47.4603 38.1951 47.8293 39.6738 48.361 41.097C48.6834 41.9627 48.752 42.9025 48.5588 43.806C48.3655 44.7094 47.9184 45.5389 47.27 46.197L47.265 46.202L45.938 47.532C47.978 50.7689 50.717 53.5079 53.954 55.548L55.279 54.222L55.286 54.216C56.1959 53.3215 57.42 52.819 58.696 52.816C59.2766 52.8151 59.8525 52.9194 60.396 53.124C61.8181 53.6556 63.2958 54.0246 64.801 54.224H64.813C65.9851 54.3897 67.0559 54.979 67.8232 55.8805C68.5904 56.7821 69.0008 57.9334 68.977 59.117V64.152C68.9815 65.4361 68.4758 66.6694 67.5712 67.5808C66.6666 68.4921 65.4371 69.0069 64.153 69.012ZM37.383 35.461C37.316 35.461 37.265 35.461 37.216 35.468C36.7184 35.5137 36.2591 35.7542 35.9381 36.137C35.617 36.5199 35.4603 37.0141 35.502 37.512C36.0365 42.4796 37.7277 47.2529 40.44 51.449L40.447 51.46C42.9199 55.3422 46.2122 58.6366 50.093 61.112C50.096 61.1151 50.0998 61.1175 50.104 61.119C54.2813 63.8193 59.0307 65.5083 63.975 66.052C64.022 66.052 64.075 66.059 64.142 66.059C64.6436 66.0566 65.1237 65.8551 65.4768 65.4988C65.8299 65.1425 66.0271 64.6606 66.025 64.159V59.102C66.0243 59.09 66.0243 59.078 66.025 59.066C66.0363 58.6028 65.8773 58.1515 65.5782 57.7976C65.2791 57.4438 64.8606 57.2119 64.402 57.146C62.6785 56.9169 60.9862 56.4949 59.357 55.888C59.018 55.7604 58.6497 55.7323 58.2954 55.8071C57.941 55.8819 57.6154 56.0563 57.357 56.31L55.223 58.445C55.0864 58.5821 54.924 58.6908 54.7451 58.7648C54.5663 58.8388 54.3745 58.8766 54.181 58.876C53.925 58.8759 53.6735 58.8094 53.451 58.683C49.0078 56.1544 45.3289 52.4741 42.802 48.03C42.6433 47.749 42.5809 47.4239 42.6242 47.1041C42.6675 46.7844 42.8142 46.4876 43.042 46.259L45.177 44.125C45.4307 43.8666 45.6054 43.541 45.6803 43.1867C45.7553 42.8324 45.7274 42.464 45.6 42.125C44.992 40.4953 44.5697 38.8023 44.341 37.078C44.2736 36.629 44.0476 36.2189 43.7041 35.9221C43.3605 35.6253 42.922 35.4614 42.468 35.46L37.383 35.461Z" fill="#1E78FF"/>
</g>
<defs>
<clipPath id="clip0_236_48">
<rect width="100" height="100" fill="white"/>
</clipPath>
</defs>
</svg>
