<svg width="100" height="100" viewBox="0 0 100 100" fill="none" xmlns="http://www.w3.org/2000/svg">
<g clip-path="url(#clip0_236_42)">
<path d="M50 99.5C77.3381 99.5 99.5 77.3381 99.5 50C99.5 22.6619 77.3381 0.5 50 0.5C22.6619 0.5 0.5 22.6619 0.5 50C0.5 77.3381 22.6619 99.5 50 99.5Z" stroke="#1962FF"/>
<path d="M66.764 69.032H33.839C32.2684 69.0301 30.7627 68.4054 29.6522 67.2948C28.5416 66.1843 27.9169 64.6786 27.915 63.108V38.414C27.9169 36.8434 28.5416 35.3377 29.6522 34.2271C30.7627 33.1166 32.2684 32.4918 33.839 32.49H66.764C68.3346 32.4918 69.8403 33.1166 70.9509 34.2271C72.0614 35.3377 72.6862 36.8434 72.688 38.414V63.108C72.6862 64.6786 72.0614 66.1843 70.9509 67.2948C69.8403 68.4054 68.3346 69.0301 66.764 69.032ZM33.839 36.107C33.2274 36.1078 32.6411 36.3511 32.2086 36.7836C31.7761 37.216 31.5328 37.8024 31.532 38.414V63.108C31.5328 63.7196 31.7761 64.3059 32.2086 64.7384C32.6411 65.1709 33.2274 65.4142 33.839 65.415H66.764C67.3756 65.4142 67.962 65.1709 68.3944 64.7384C68.8269 64.3059 69.0702 63.7196 69.071 63.108V38.414C69.0702 37.8024 68.8269 37.216 68.3944 36.7836C67.962 36.3511 67.3756 36.1078 66.764 36.107H33.839Z" fill="#1E78FF"/>
<path d="M72.362 37.377C72.0869 36.984 71.667 36.7163 71.1947 36.6329C70.7223 36.5494 70.2361 36.657 69.843 36.932L50.302 50.611L30.761 36.932C30.5668 36.7883 30.3458 36.6849 30.111 36.628C29.8763 36.5711 29.6325 36.5618 29.394 36.6007C29.1556 36.6395 28.9274 36.7258 28.7228 36.8542C28.5183 36.9827 28.3415 37.1509 28.203 37.3488C28.0644 37.5467 27.9669 37.7703 27.9163 38.0065C27.8656 38.2427 27.8627 38.4867 27.9078 38.724C27.9529 38.9613 28.0451 39.1872 28.1789 39.3883C28.3128 39.5894 28.4855 39.7617 28.687 39.895L49.265 54.305C49.569 54.5176 49.931 54.6317 50.302 54.6317C50.673 54.6317 51.035 54.5176 51.339 54.305L71.915 39.896C72.1098 39.7599 72.2758 39.5868 72.4037 39.3866C72.5315 39.1864 72.6187 38.963 72.6602 38.729C72.7017 38.4951 72.6968 38.2553 72.6456 38.0233C72.5944 37.7914 72.4981 37.5717 72.362 37.377Z" fill="#1E78FF"/>
</g>
<defs>
<clipPath id="clip0_236_42">
<rect width="100" height="100" fill="white"/>
</clipPath>
</defs>
</svg>
