<svg width="100" height="100" viewBox="0 0 100 100" fill="none" xmlns="http://www.w3.org/2000/svg">
<g clip-path="url(#clip0_236_38)">
<path d="M50 0.5C59.7902 0.5 69.3605 3.40312 77.5007 8.84225C85.641 14.2814 91.9855 22.0122 95.732 31.0572C99.4786 40.1021 100.459 50.0549 98.5489 59.657C96.6389 69.259 91.9245 78.0791 85.0018 85.0018C78.0791 91.9245 69.259 96.6389 59.657 98.5489C50.0549 100.459 40.1021 99.4786 31.0572 95.732C22.0122 91.9855 14.2814 85.641 8.84225 77.5007C3.40312 69.3605 0.5 59.7902 0.5 50C0.5 36.8718 5.71516 24.2813 14.9982 14.9982C24.2813 5.71516 36.8718 0.5 50 0.5Z" stroke="#1E78FF"/>
<path d="M50.152 66.5939C49.6504 66.5944 49.1565 66.4708 48.7144 66.234C48.2722 65.9972 47.8955 65.6546 47.618 65.2369L35.531 47.1069C35.531 43.229 37.0715 39.51 39.8135 36.7679C42.5556 34.0258 46.2746 32.4854 50.1525 32.4854C54.0304 32.4854 57.7494 34.0258 60.4915 36.7679C63.2335 39.51 64.774 43.229 64.774 47.1069L52.688 65.2369C52.4101 65.6547 52.0331 65.9974 51.5906 66.2341C51.1481 66.4709 50.6539 66.5945 50.152 66.5939ZM50.152 41.2579C48.9954 41.2579 47.8648 41.6008 46.9031 42.2433C45.9415 42.8859 45.1919 43.7992 44.7493 44.8677C44.3066 45.9362 44.1907 47.112 44.4163 48.2464C44.6419 49.3807 45.1987 50.4228 46.0165 51.2407C46.8342 52.0586 47.8762 52.6156 49.0105 52.8414C50.1448 53.0671 51.3206 52.9515 52.3892 52.509C53.4578 52.0665 54.3712 51.3171 55.014 50.3556C55.6567 49.394 55.9998 48.2634 56 47.1069C55.9982 45.5565 55.3816 44.0702 54.2855 42.9737C53.1895 41.8773 51.7023 41.2602 50.152 41.2579Z" fill="#1E78FF"/>
</g>
<defs>
<clipPath id="clip0_236_38">
<rect width="100" height="100" fill="white"/>
</clipPath>
</defs>
</svg>
