<?xml version="1.0" encoding="utf-8"?>
<!-- Generator: Adobe Illustrator 27.7.0, SVG Export Plug-In . SVG Version: 6.00 Build 0)  -->
<svg version="1.1" id="Layer_1" xmlns="http://www.w3.org/2000/svg" xmlns:xlink="http://www.w3.org/1999/xlink" x="0px" y="0px"
	 viewBox="0 0 1408.17 525.8" style="enable-background:new 0 0 1408.17 525.8;" xml:space="preserve">
<style type="text/css">
	.st0{fill:none;}
	.st1{fill:#289E5A;}
	.st2{fill:#6BB97A;}
	.st3{fill:#FFFFFF;}
	.st4{fill:#0F6838;}
	.st5{clip-path:url(#SVGID_00000153670228764501815850000010853681626729950127_);fill:#C0992C;}
	
		.st6{clip-path:url(#SVGID_00000181803585787573250680000016765559317964592028_);fill:url(#SVGID_00000111152489016471371510000001036274999775453576_);}
	
		.st7{clip-path:url(#SVGID_00000132794951011962583330000005219221380498335656_);fill:url(#SVGID_00000023254217140359033350000000410443809613085886_);}
	.st8{fill:#0071E3;}
</style>
<g>
	<path class="st8" d="M368.49,226.02c0.64-30.16,0.94-45.27-6.81-58.69l-0.02,0.01c-7.82-13.51-21.08-20.8-47.57-35.36l-4.59-2.52
		l-3.11-1.88c-13.96-8.46-24.21-14.67-33.06-18.59c-8.69-5.11-16.17-9.64-22.73-13.62c-25.98-15.74-38.96-23.61-54.41-23.61
		s-28.44,7.87-54.41,23.61c-8.19,4.96-17.9,10.85-31.53,18.72l0.01,0.02c-11.11,6.42-22.42,12.63-31.98,17.88
		c-26.52,14.57-39.78,21.86-47.6,35.4c-7.76,13.45-7.44,28.58-6.8,58.85c0.19,9.15,0.42,19.99,0.42,36.67
		c0,16.66-0.23,27.52-0.42,36.67c-0.64,30.3-0.96,45.45,6.81,58.9l0.02-0.01c7.82,13.51,21.08,20.8,47.57,35.36
		c21.52,11.82,42.5,23.9,63.5,36.62c15.2,9.21,36.12,23.61,54.41,23.61c15.45,0,28.43-7.87,54.41-23.61
		c8.19-4.96,17.9-10.85,31.53-18.72l-0.01-0.02c11.12-6.42,22.42-12.63,31.98-17.88c26.52-14.57,39.78-21.86,47.6-35.4
		c7.76-13.45,7.44-28.58,6.8-58.85L368.49,226.02z M161.41,291.82c16.73,9.48,27.36,13.37,40.79,11.47
		c13.26-1.87,25.86-9.5,48.39-23.15c8.19-4.96,17.9-10.84,31.53-18.72c12.15-7.01,22.89-12.92,31.96-17.9
		c11.84-6.5,21.14-11.62,28.45-16.36c-0.23,10.89,0,31.56-0.5,35.29c-2.72,18.93-24.79,26.17-40.46,34.78
		c-8.9,4.89-19.44,10.68-32.47,18.21c-11.53,6.66-22.59,13.36-31.94,19.02c-38.67,23.43-40.87,24.75-75.33,4.02
		c0.04-3.76,0.07-7.51,0.07-11.16C161.9,315.54,161.64,302.8,161.41,291.82z M318.14,164.84c10.83,4.23,21.26,10.83,23.55,22.7
		c-2.57,12.57-12.1,17.81-40.12,33.2c-8.9,4.89-19.44,10.68-32.47,18.2c-11.53,6.66-22.59,13.36-31.94,19.02
		c-19.54,11.84-30.46,18.45-38.52,19.59c-8.22,1.16-17.7-4.04-37.41-15.93c0.34-7.83,1.3-13.12,3.47-16.89l0.02,0.01
		c4.15-7.19,15.31-13.32,37.63-25.59c8.9-4.89,19.44-10.68,32.47-18.21c11.53-6.66,22.59-13.36,31.94-19.02
		C295.31,164.65,304.07,159.34,318.14,164.84z M90.77,154.75c8.41-4.62,18.37-10.09,32.42-18.21h0.05
		c11.54-6.66,22.6-13.36,31.94-19.02c21.72-13.16,32.59-19.74,40.99-19.74c6.88,0,15.4,4.41,30.18,13.23
		c-7.88,3.89-16.98,9.4-28.8,16.57c-8.19,4.96-17.89,10.84-31.53,18.72c-12.15,7.01-22.89,12.92-31.96,17.9
		c-26.52,14.57-39.78,21.86-47.6,35.4c-3.21,5.57-5,11.5-5.99,18.6L49.52,201.9c0.16-10.5,1.03-17.14,3.62-21.62
		C57.25,173.18,68.42,167.03,90.77,154.75z M79.66,258.44c0.19,9.03,0.42,19.74,0.42,36.05l-29.89-15.72
		c0.08-5.32,0.13-10.68,0.13-15.87c0-10.09-0.19-20.81-0.39-30.59l29.52,15.53C79.5,251.16,79.58,254.68,79.66,258.44z
		 M79.62,364.88c-15.04-8.4-23.12-13.56-26.48-19.38v-0.05c-3.66-6.34-3.89-16.98-3.52-36.8l30.18,15.88
		c-0.05,2.56-0.1,4.95-0.15,7.24C79.37,345.43,79.14,356.13,79.62,364.88z M142.25,231.75v0.05c-7.76,13.45-7.45,28.59-6.81,58.85
		c0.19,9.15,0.42,19.99,0.42,36.67c0,16.68-0.23,27.52-0.42,36.67c-0.28,13.26-0.5,23.75-0.12,32.35
		c-3.81-2.26-7.85-4.62-12.13-7.09c-23.48-13.55-18.18-29.85-17.61-56.96c0.24-11.35,0.52-24.79,0.52-37.18
		c0-12.39-0.28-25.83-0.52-37.18c-0.54-25.49-0.81-38.23,3.35-45.43c4.11-7.11,15.28-13.25,37.63-25.54
		c8.9-4.89,19.44-10.68,32.47-18.21c11.53-6.66,22.59-13.36,31.94-19.02c19.89-12.05,30.81-18.67,38.98-19.64
		c3.52-0.42,7.32,0.35,12.09,2.31c2.29,1.34,4.66,2.72,7.11,4.14c4.44,2.56,8.47,4.86,12.17,6.95c-7.66,3.97-16.63,9.4-27.98,16.28
		c-8.19,4.96-17.89,10.84-31.53,18.72c-12.15,7.01-22.89,12.92-31.96,17.9C163.3,210.99,150.03,218.28,142.25,231.75z
		 M339.21,345.51c-4.11,7.11-15.28,13.25-37.63,25.53c-8.41,4.62-18.37,10.1-32.42,18.21h-0.05c-11.54,6.66-22.59,13.36-31.94,19.02
		c-21.72,13.16-32.59,19.74-40.99,19.74c-4.53,0-9.78-1.91-17.06-5.74c-18.08-11.31-18.54-18.94-17.82-53.98
		c35.9,20.68,42.34,16.79,89.29-11.66c8.19-4.96,17.89-10.84,31.53-18.72c12.15-7.01,22.89-12.92,31.96-17.9
		c11.98-6.58,21.26-11.68,28.55-16.53C343.11,326.71,343.18,338.64,339.21,345.51z"/>
	<g>
		<g>
			<g>
				<g>
					<g>
						<path d="M1395.38,157.85c-0.01,10.56-7.68,18.29-17.28,18.12c-9.15-0.16-16.74-7.69-16.61-17.15
							c0.12-9.38,7.56-16.21,15.76-16.7c5.13-0.31,9.57,1.33,13.2,4.95C1393.74,150.36,1395.34,154.41,1395.38,157.85z
							 M1392.81,158.95c0.04-7.64-6.26-14.19-14.12-14.32c-8.06-0.14-14.52,6.39-14.64,14.13c-0.13,8.14,6.52,14.55,14.16,14.65
							C1386.25,173.51,1392.89,166.93,1392.81,158.95z"/>
						<path d="M1372.25,150.42c0.09,0,0.16-0.01,0.23-0.01c2.35,0.01,4.7,0,7.05,0.04c1.14,0.02,2.27,0.19,3.36,0.58
							c1.71,0.6,2.65,1.83,2.95,3.58c0.18,1.06,0.17,2.12-0.07,3.16c-0.43,1.85-1.6,2.99-3.38,3.57c-0.03,0.01-0.07,0.02-0.1,0.03
							c-0.01,0-0.01,0.01-0.03,0.05c1.47,2.05,2.95,4.11,4.45,6.21c-0.11,0.01-0.18,0.01-0.25,0.01c-1.07,0-2.15-0.01-3.22,0
							c-0.16,0-0.26-0.04-0.35-0.18c-1.25-1.78-2.5-3.54-3.74-5.32c-0.14-0.2-0.28-0.29-0.54-0.29c-1.05,0.01-2.11,0-3.16,0
							c-0.1,0-0.19,0-0.32,0c-0.01,1.92-0.01,3.82-0.01,5.74c-0.98,0-1.92,0-2.89-0.01
							C1372.22,161.86,1372.23,156.16,1372.25,150.42z M1375.11,159.16c0.07,0.01,0.11,0.02,0.16,0.02
							c1.22,0.01,2.45,0.03,3.67,0.01c0.61-0.01,1.23-0.07,1.83-0.18c1.03-0.18,1.77-0.74,2.04-1.8c0.19-0.75,0.2-1.51,0.03-2.28
							c-0.17-0.77-0.62-1.32-1.38-1.53c-0.65-0.17-1.32-0.3-1.99-0.33c-1.37-0.05-2.75-0.02-4.13-0.03c-0.07,0-0.14,0.01-0.22,0.02
							C1375.12,155.1,1375.12,157.12,1375.11,159.16z"/>
					</g>
				</g>
			</g>
			<g>
				<g>
					<path d="M747.58,263.07c-0.03,10.87-1.61,20.65-4.73,29.37c-3.13,8.72-7.56,16.18-13.29,22.37
						c-5.74,6.2-12.69,10.93-20.84,14.2c-8.16,3.27-17.28,4.9-27.36,4.87c-10.09-0.03-19.2-1.7-27.34-5.02
						c-8.14-3.32-15.11-8.09-20.91-14.31c-5.8-6.22-10.25-13.7-13.33-22.44c-3.08-8.74-4.61-18.53-4.58-29.4
						c0.03-10.86,1.66-20.65,4.88-29.37c3.22-8.72,7.76-16.17,13.59-22.37c5.84-6.19,12.83-10.92,20.98-14.2
						c8.16-3.27,17.18-4.9,27.07-4.88c9.89,0.03,18.91,1.7,27.04,5.02c8.14,3.32,15.06,8.09,20.77,14.31
						c5.7,6.22,10.15,13.7,13.33,22.44C746.03,242.41,747.61,252.21,747.58,263.07z M681.67,211.11
						c-13.2-0.03-23.58,4.5-31.17,13.59c-7.59,9.1-11.4,21.79-11.45,38.08c-0.04,16.49,3.66,29.25,11.1,38.29
						c7.44,9.04,17.86,13.57,31.24,13.61c13.38,0.03,23.77-4.49,31.17-13.59c7.39-9.1,11.12-21.79,11.16-38.09
						c0.04-16.29-3.66-29-11.1-38.14C705.17,215.73,694.86,211.14,681.67,211.11z"/>
					<path d="M904.67,263.47c-0.03,10.87-1.61,20.65-4.73,29.37s-7.56,16.18-13.29,22.37c-5.74,6.2-12.69,10.93-20.84,14.2
						c-8.16,3.27-17.28,4.9-27.36,4.87c-10.09-0.03-19.2-1.7-27.34-5.02c-8.14-3.32-15.11-8.09-20.91-14.31
						c-5.8-6.22-10.25-13.7-13.33-22.44c-3.08-8.74-4.61-18.53-4.58-29.4c0.03-10.86,1.66-20.65,4.88-29.37
						c3.22-8.72,7.76-16.17,13.59-22.37c5.84-6.19,12.83-10.92,20.98-14.2c8.16-3.27,17.18-4.9,27.07-4.88
						c9.89,0.03,18.91,1.7,27.04,5.02c8.14,3.32,15.06,8.09,20.77,14.31c5.7,6.22,10.15,13.7,13.33,22.44
						C903.13,242.81,904.7,252.61,904.67,263.47z M838.76,211.51c-13.2-0.03-23.58,4.5-31.17,13.59
						c-7.59,9.1-11.4,21.79-11.45,38.08c-0.04,16.49,3.66,29.25,11.1,38.29c7.44,9.04,17.86,13.57,31.24,13.61
						c13.38,0.03,23.77-4.49,31.17-13.59c7.39-9.1,11.12-21.79,11.16-38.09c0.04-16.29-3.66-29-11.1-38.14
						C862.26,216.13,851.95,211.54,838.76,211.51z"/>
				</g>
			</g>
		</g>
		<path d="M1195.66,321.6l0.04,0.9c0,6.39,5.18,11.57,11.57,11.57h0.14c6.31,0,11.4-5.07,11.52-11.35L1219,206.6
			c0.02-6.43-5.19-11.65-11.62-11.65l0,0c-6.42,0-11.62,5.2-11.62,11.62l0,105.23"/>
		<path d="M928.96,321.6l0.04,0.9c0,6.39,5.18,11.57,11.57,11.57h0.14c6.31,0,11.4-5.07,11.52-11.35l0.06-169
			c0.02-6.43-5.19-11.65-11.62-11.65l0,0c-6.42,0-11.62,5.2-11.62,11.62l0,158.1"/>
		<path d="M1157.08,206.06c-9.29-7.49-21.79-11.26-37.5-11.3c-9.7-0.03-18.33,1.46-25.91,4.44c-7.57,2.99-13.89,6.71-18.94,11.15
			c-3.36-2.86-14.12-8.77-17.14-9.73l-0.03,0.16c-1.13-0.51-2.08-1.11-3.27-1.58c-7.57-2.99-16.2-4.47-25.91-4.44
			c-15.71,0.04-28.21,3.81-37.5,11.3c-9.29,7.49-13.92,19-13.88,34.51l0.13,48.94l0.09,33.21c0.12,6.28,5.21,11.35,11.52,11.35h0.14
			c6.39,0,11.57-5.18,11.57-11.57l0.04-0.9l-0.07-28.37l-0.13-51.55c-0.03-9.5,2.68-16.49,8.09-20.97
			c5.42-4.47,12.69-6.72,21.8-6.75c6.62-0.02,12.87,1.2,18.75,3.65c8.64,3.59,13.32,12.68,13.32,22.03c0,0.04,0,0.09,0,0.13
			l0.04-0.1c0.02,0.62,0.13,1.15,0.13,1.79l-0.12,48.05l-0.09,32.58l0.03,0.42c0,6.39,5.18,11.57,11.57,11.57h0.14
			c6.33,0,11.43-5.09,11.53-11.39l0-0.01l0.09-33.09l0.13-49.81c0-0.04,0-0.09,0-0.13c0-9.35,4.68-18.44,13.32-22.03
			c5.88-2.45,12.13-3.66,18.75-3.65c9.11,0.02,16.38,2.27,21.8,6.75c5.42,4.48,8.12,11.47,8.09,20.97l-0.13,51.55l-0.07,28.37
			l0.04,0.9c0,6.39,5.18,11.57,11.57,11.57h0.14c6.31,0,11.4-5.07,11.52-11.35l0.09-33.21l0.13-48.94
			C1170.99,225.06,1166.37,213.56,1157.08,206.06z"/>
		<path d="M1358.28,314.33l-6.32-7.5l-34.42-42.27l41.25-50.56c4.11-4.94,3.43-12.29-1.52-16.39c-4.94-4.09-12.27-3.4-16.36,1.54
			l-38.32,47.05l-38.32-47.05c-4.09-4.94-11.42-5.63-16.36-1.54c-4.95,4.1-5.63,11.44-1.52,16.39l41.25,50.56l-34.42,42.27
			l-6.32,7.5l-0.54,0.72c-4.07,4.92-3.39,12.21,1.53,16.29l0.11,0.09c4.86,4.03,12.01,3.37,16.11-1.4l38.47-47.16l38.47,47.16
			c4.1,4.76,11.25,5.42,16.11,1.4l0.11-0.09c4.92-4.07,5.61-11.37,1.53-16.29L1358.28,314.33z"/>
		<g>
			<path d="M589.17,308.86c-1.17-1.84-2.91-3-4.8-3.74c-0.46-0.18-0.93-0.28-1.4-0.4c-0.28-0.07-0.54-0.2-0.83-0.24
				c-2.24-0.31-4.58,0.02-6.64,1.32l-0.32,0.17l-3.2,2.04c-6.68,4.26-14.42,6.54-22.34,6.57l0,0c-6.6,0.02-12.71-1.09-18.34-3.3
				c-5.64-2.22-10.49-5.5-14.57-9.85c-4.08-4.35-7.3-9.78-9.65-16.27c-2.33-6.45-3.5-13.81-3.54-22.08
				c0.04-8.26,1.21-15.63,3.54-22.08c2.35-6.49,5.56-11.92,9.65-16.27c4.08-4.35,8.94-7.64,14.57-9.85
				c5.63-2.21,11.74-3.32,18.34-3.3l0,0c7.92,0.03,15.67,2.31,22.34,6.57l3.2,2.04l0.32,0.17c2.06,1.3,4.4,1.63,6.64,1.32
				c0.78-0.11,1.49-0.35,2.22-0.63c1.89-0.74,3.63-1.9,4.8-3.74l0.07-0.1c0.96-1.51,1.29-3.17,1.37-4.83
				c0.01-0.17-0.01-0.35-0.01-0.52c-0.1-2.26-1-4.48-2.74-6.67c-0.09-0.11-0.12-0.23-0.21-0.34c-2.03-2.43-4.89-4.62-8.57-6.57
				c-1.11-0.59-2.41-1.05-3.65-1.56c-2.88-1.18-5.99-2.23-9.58-2.98c-2.01-0.42-4.13-0.69-6.27-0.95
				c-3.34-0.41-6.79-0.68-10.46-0.69c-9.51-0.02-18.48,1.46-26.92,4.44c-8.45,2.99-15.78,7.48-22,13.47
				c-6.23,6-11.19,13.4-14.9,22.22c-3.68,8.76-5.54,19.02-5.6,30.75c0,0.04,0,0.07,0,0.11c0.04,11.78,1.91,22.07,5.6,30.86
				c3.71,8.82,8.67,16.22,14.9,22.22c6.22,5.99,13.56,10.48,22,13.47c4.22,1.49,8.57,2.61,13.06,3.35
				c4.48,0.69,9.13,1.07,13.98,1.08c3.62-0.02,7.03-0.28,10.34-0.68c2.14-0.26,4.26-0.53,6.27-0.95c3.59-0.76,6.7-1.8,9.58-2.98
				c1.24-0.51,2.54-0.98,3.65-1.56c3.68-1.95,6.54-4.14,8.57-6.57c0.09-0.11,0.12-0.23,0.21-0.34c1.74-2.19,2.64-4.41,2.74-6.67
				c0-0.17,0.02-0.34,0.01-0.52c-0.07-1.66-0.41-3.32-1.37-4.83L589.17,308.86z"/>
		</g>
	</g>
</g>
</svg>
