<?xml version="1.0" encoding="utf-8"?>
<!-- Generator: Adobe Illustrator 27.7.0, SVG Export Plug-In . SVG Version: 6.00 Build 0)  -->
<svg version="1.1" id="Layer_1" xmlns="http://www.w3.org/2000/svg" xmlns:xlink="http://www.w3.org/1999/xlink" x="0px" y="0px"
	 viewBox="0 0 1408.17 525.8" style="enable-background:new 0 0 1408.17 525.8;" xml:space="preserve">
<style type="text/css">
	.st0{fill:none;}
	.st1{fill:#289E5A;}
	.st2{fill:#6BB97A;}
	.st3{fill:#FFFFFF;}
	.st4{fill:#0F6838;}
	.st5{clip-path:url(#SVGID_00000071558929327542503560000011914124582267202195_);fill:#C0992C;}
	
		.st6{clip-path:url(#SVGID_00000065061860421383165090000017866666641059112363_);fill:url(#SVGID_00000103241290799949662860000011918343330353320877_);}
	
		.st7{clip-path:url(#SVGID_00000011018691143983102250000007383011155035277211_);fill:url(#SVGID_00000114751899060194406250000008895488011745740174_);}
	.st8{fill:#0071E3;}
</style>
<g>
	<g>
		<defs>
			<rect id="SVGID_1_" x="10.3" y="29.15" width="1038.41" height="519.2"/>
		</defs>
		<clipPath id="SVGID_00000001652059698469612250000006753661495826594176_">
			<use xlink:href="#SVGID_1_"  style="overflow:visible;"/>
		</clipPath>
		<path style="clip-path:url(#SVGID_00000001652059698469612250000006753661495826594176_);fill:#C0992C;" d="M91.65,453.06v3.53
			c-7.1,0.97-7.62,1.63-7.62,8.67v9.61c0,4.09,0.12,7.94,0.7,11.07c-6.97,1.52-16.98,4.12-26.67,4.12
			c-26.53,0-42.49-16.42-42.49-39.69c0-24.8,20.2-39.16,43.7-39.16c11.41,0,20.39,2.32,24.03,2.86c0.23,4.44,0.88,11.84,1.78,18.99
			l-3.67,0.72c-2.79-9.87-6.32-14.2-13.62-16.64c-2.67-0.93-7.35-1.49-10.63-1.49c-17.1,0-28.43,12.19-28.43,33.21
			c0,18.82,9.1,36.77,31.01,36.77c3.66,0,7.15-0.73,9.43-1.91c2.31-1.33,3.72-2.73,3.72-7.29v-9.65c0-8.41-1.05-9.32-11.95-10.2
			v-3.53H91.65L91.65,453.06z M181.83,416.28c-9.53,0.93-10.44,1.53-10.44,11.26v46.19c0,9.73,1.02,10.14,10.44,11.15v3.44h-31.98
			v-3.44c9.55-1.16,10.44-1.41,10.44-11.15v-22.97h-38.21v22.97c0,9.64,0.95,10.03,10.33,11.15v3.44h-31.86v-3.44
			c9.26-1.02,10.35-1.41,10.35-11.15v-46.19c0-9.73-1.05-10.38-10.35-11.26v-3.44h31.86v3.44c-9.21,0.81-10.33,1.63-10.33,11.26
			v18.13h38.21v-18.13c0-9.64-1.26-10.43-10.44-11.26v-3.44h31.98V416.28z M232.15,411.21c20.15,0,37.88,15.3,37.88,38.36
			c0,24.93-17.08,40.49-38.55,40.49c-22.46,0-38.83-16.95-38.83-38.89C192.65,430.55,207.29,411.21,232.15,411.21z M229.93,415.66
			c-12.8,0-24.08,11.04-24.08,32.55c0,21.24,11.11,37.32,27.46,37.32c13.51,0,23.72-10.49,23.72-32.7
			C257.03,428.69,244.83,415.66,229.93,415.66z M334.68,488.32h-54.65v-3.44c10.5-0.98,11.43-1.6,11.43-11.45v-45.77
			c0-9.85-1.16-10.49-10.35-11.38v-3.44h32.04v3.44c-9.25,0.91-10.5,1.44-10.5,11.38v46.87c0,6.96,0.8,8.81,7.38,8.93
			c0.14,0.02,7.95,0.12,8.61,0.12c6.05,0,7.79-0.82,10.48-3.77c2.78-2.89,5.32-7.6,7.13-11.98l3.75,1.01
			C339.26,472.69,335.82,484.81,334.68,488.32z M413.46,468.17c-0.81,4.03-3.68,15.32-4.82,20.15h-60.74l-1-1.98
			c15.79-22.11,31.84-45.36,47.86-68.71h-21.98c-9.98,0-11.76,0.78-14.2,4.44c-1.2,1.61-2.92,5.4-4.45,9.8l-3.65-0.12
			c0.6-6.23,1.95-16.52,2.21-21.63h3.21c1.3,2.79,2.73,2.71,6.22,2.71h46.92l0.91,1.9c-15.79,22.5-31.34,45.09-47.09,68.46
			c3.64,0.25,10.44,0.35,18.23,0.35c14.96,0,18.22-0.54,21.49-4.06c2.5-2.46,5.2-7.13,7.36-12.18L413.46,468.17z M466.5,488.32
			v-3.44c7.51-0.95,8.27-2.13,6.64-6.65c-1.45-4.34-3.69-10.04-6-16.88H442.5c-1.75,4.93-3.47,9.44-5.02,13.99
			c-2.53,7.51-0.7,8.44,8.76,9.53v3.44h-27.16v-3.44c7.32-0.93,9.17-1.78,13.22-12.11l24.06-60.8l4.05-0.76
			c7.34,19.92,15.33,41.64,22.69,61.6c3.82,10.23,4.87,11.14,12.99,12.07v3.44H466.5z M455.14,427.58
			c-3.65,9.69-7.48,19.76-10.86,28.81h21.13L455.14,427.58z M500.71,412.84h32.89c16.1,0,26.54,3.23,33.78,10.1
			c5.73,5.55,9.98,13.68,9.98,24.93c0,13.55-5.57,24.43-14.52,31.17c-8.78,6.6-20.01,9.28-34.1,9.28h-28.03v-3.44
			c9.78-0.89,10.35-1.74,10.35-11.29v-45.94c0-9.95-1.37-10.49-10.35-11.38V412.84L500.71,412.84z M522.25,472.69
			c0,8.63,3.42,11.13,12.09,11.13c19.96,0,30.35-13.68,30.35-34.29c0-12.37-4.07-22-12.55-27.47c-5.26-3.64-11.87-4.98-19.65-4.98
			c-5.06,0-7.7,0.74-8.78,1.63c-1.05,0.76-1.47,2.16-1.47,6.48V472.69z M663.83,425.9c-5.04,8.25-9.21,15.97-14.9,26.53
			c-1.31,2.52-1.66,3.92-1.66,6.73v14.3c0,9.72,1.02,10.36,11.59,11.42v3.44h-33.93v-3.44c10.32-1.35,11.13-1.6,11.13-11.42v-14.69
			c0-2.36-0.46-3.43-2.13-6.48c-3.94-7.42-7.95-14.82-14.35-25.97c-4.49-7.83-5.75-9.25-13.44-10.04v-3.44h29.55v3.44
			c-8.26,1.14-7.83,2.65-5.76,6.62c4.69,8.69,10.06,18.93,14.86,27.6c4.06-7.55,10.49-19.94,13.74-26.45
			c2.59-5.6,2.13-6.82-6.89-7.77v-3.44h26.39v3.44C670.02,417.19,668.39,418.53,663.83,425.9z M714.08,488.32v-3.44
			c7.51-0.95,8.27-2.13,6.64-6.65c-1.45-4.34-3.69-10.04-6-16.88h-24.64c-1.75,4.93-3.47,9.44-5.02,13.99
			c-2.53,7.51-0.7,8.44,8.76,9.53v3.44h-27.16v-3.44c7.32-0.93,9.17-1.78,13.22-12.11l24.06-60.8l4.05-0.76
			c7.34,19.92,15.33,41.64,22.69,61.6c3.82,10.23,4.87,11.14,12.99,12.07v3.44H714.08z M702.72,427.58
			c-3.65,9.69-7.48,19.76-10.86,28.81H713L702.72,427.58z M817.62,469.49c-1.63,5.62-4.65,14.06-6.41,17.74
			c-3.3,0.7-12.45,2.83-21.27,2.83c-28.38,0-42.32-18.76-42.32-38.74c0-23.75,18.06-40.11,44.41-40.11
			c10.01,0,18.28,2.15,21.95,2.69c0.49,5.27,1.3,12.53,2.21,18.21l-3.79,0.81c-2.34-8.01-5.26-12.69-11.22-15.13
			c-2.98-1.35-7.63-2.1-11.82-2.1c-18.74,0-28.55,14.15-28.55,33.14c0,22.2,11.49,36.6,29.78,36.6c11.47,0,17.4-5.4,23.39-17.22
			L817.62,469.49z M909.82,416.28c-9.53,0.93-10.44,1.53-10.44,11.26v46.19c0,9.73,1.02,10.14,10.44,11.15v3.44h-31.98v-3.44
			c9.55-1.16,10.44-1.41,10.44-11.15v-22.97h-38.21v22.97c0,9.64,0.95,10.03,10.33,11.15v3.44h-31.86v-3.44
			c9.26-1.02,10.35-1.41,10.35-11.15v-46.19c0-9.73-1.05-10.38-10.35-11.26v-3.44h31.86v3.44c-9.21,0.81-10.33,1.63-10.33,11.26
			v18.13h38.21v-18.13c0-9.64-1.26-10.43-10.44-11.26v-3.44h31.98V416.28z M982.5,431.41c-1.09-4.01-2.69-7.95-3.95-9.95
			c-1.9-3.01-3.02-3.84-9.49-3.84H958.2v56.2c0,9.18,0.97,10.36,11.88,11.07v3.44h-34.65v-3.44c10.63-0.72,11.58-1.8,11.58-11.07
			v-56.2h-9.94c-6.41,0-8.27,0.76-10.28,4.12c-1.44,2.3-2.49,5.34-4,9.7h-3.65c0.72-7.33,1.44-14.96,1.76-21.3h2.82
			c1.74,2.77,3.04,2.71,6.33,2.71h46.07c3.23,0,4.29-0.51,6.07-2.71h2.89c0.02,5.35,0.49,14.05,1.07,20.93L982.5,431.41z
			 M1036.97,430.76c-2.04-7.62-5.29-15.34-16.16-15.34c-8.64,0-12.01,6.28-12.01,12.41c0,7.72,4.96,11.74,14.71,16.76
			c13.66,7.01,20.04,12.48,20.04,23.59c0,12.47-10.71,21.88-25.99,21.88c-7.05,0-13.19-1.97-18.08-3.79
			c-0.89-3.15-2.39-11.8-3.2-17.92l3.77-0.95c2.32,7.7,7.68,18.26,19.63,18.26c8.13,0,13.09-5.56,13.09-13.08
			c0-8.54-4.66-12.21-14.79-17.72c-12.17-6.6-19.21-12.21-19.21-23.24c0-10.67,8.76-20.4,24.47-20.4c6.77,0,13.1,1.74,15.56,2.19
			c0.46,4.2,0.99,9.1,1.92,16.6L1036.97,430.76z"/>
	</g>
	<g>
		<defs>
			<path id="SVGID_00000072994080344124933700000015717231137170631078_" d="M590.64,135.01c-44.81-39.6-107.76-14.24-114.64,48.06
				c59.42-53.32,101.57,65.89,0.77,70.57c-44.76,2.07-139.06-44.61-120.26-177.52c-6.72,21.37-10.58,43.88-10.58,68
				c0,101.78,82.53,184.31,184.31,184.31c101.78,0,184.31-82.53,184.31-184.31c0-35.36-8.3-67.27-21.69-97.1
				C726.6,129.16,694.9,227.19,590.64,135.01"/>
		</defs>
		<clipPath id="SVGID_00000083787870562038865750000017556662233993370032_">
			<use xlink:href="#SVGID_00000072994080344124933700000015717231137170631078_"  style="overflow:visible;"/>
		</clipPath>
		
			<radialGradient id="SVGID_00000069395717373507291960000013465750119545227688_" cx="1811.886" cy="1057.0923" r="1.6541" gradientTransform="matrix(365.3119 0 0 -365.3119 -661363.9375 386099.9375)" gradientUnits="userSpaceOnUse">
			<stop  offset="0" style="stop-color:#DBC287"/>
			<stop  offset="0.547" style="stop-color:#C0992C"/>
			<stop  offset="1" style="stop-color:#C0992C"/>
		</radialGradient>
		
			<rect x="337.71" y="47.03" style="clip-path:url(#SVGID_00000083787870562038865750000017556662233993370032_);fill:url(#SVGID_00000069395717373507291960000013465750119545227688_);" width="388.89" height="281.41"/>
	</g>
	<g>
		<defs>
			<path id="SVGID_00000091693901743060572580000003599946376763819437_" d="M345.93,144.13c0,70.16,39.19,131.17,96.86,162.3
				c110.97,42.29,166.77-27.02,158.27-85.66c-8.27-56.85-78.42-103.53-125.06-37.69c59.42-53.32,101.57,65.89,0.77,70.57
				c-44.76,2.07-139.06-44.61-120.26-177.52C349.8,97.49,345.93,120,345.93,144.13"/>
		</defs>
		<clipPath id="SVGID_00000063601538244361885450000012274831607205013947_">
			<use xlink:href="#SVGID_00000091693901743060572580000003599946376763819437_"  style="overflow:visible;"/>
		</clipPath>
		
			<linearGradient id="SVGID_00000142898166077631142080000010494337161545520316_" gradientUnits="userSpaceOnUse" x1="1805.4441" y1="1059.113" x2="1807.0983" y2="1059.113" gradientTransform="matrix(154.7504 0 0 -154.7504 -279047.25 164110.5625)">
			<stop  offset="0" style="stop-color:#CDAB56"/>
			<stop  offset="0.1695" style="stop-color:#C7A241"/>
			<stop  offset="0.3545" style="stop-color:#C29B32"/>
			<stop  offset="0.5002" style="stop-color:#C0992C"/>
			<stop  offset="0.6579" style="stop-color:#A88626"/>
			<stop  offset="1" style="stop-color:#766019"/>
		</linearGradient>
		
			<rect x="337.71" y="76.13" style="clip-path:url(#SVGID_00000063601538244361885450000012274831607205013947_);fill:url(#SVGID_00000142898166077631142080000010494337161545520316_);" width="271.85" height="272.59"/>
	</g>
</g>
</svg>
