<svg width="695" height="650" viewBox="0 0 695 650" fill="none" xmlns="http://www.w3.org/2000/svg">
<g clip-path="url(#clip0_205_66)">
<mask id="mask0_205_66" style="mask-type:luminance" maskUnits="userSpaceOnUse" x="0" y="0" width="695" height="650">
<path d="M694.818 0H0V649.562H694.818V0Z" fill="white"/>
</mask>
<g mask="url(#mask0_205_66)">
<path d="M633.983 73.538C632.583 71.4047 631.16 69.2843 629.714 67.177L631.29 66.09C632.753 68.21 634.187 70.3433 635.59 72.49L633.983 73.538Z" fill="#CECECE"/>
<path d="M335.454 649.562C333.002 649.562 330.554 649.54 328.134 649.491L328.18 647.572C333.22 647.673 338.323 647.667 343.489 647.556L343.533 649.477C340.826 649.534 338.133 649.562 335.456 649.563M312.756 648.873C307.641 648.557 302.48 648.131 297.426 647.602L297.626 645.69C302.659 646.219 307.789 646.642 312.882 646.952L312.756 648.873ZM358.913 648.855L358.794 646.934C363.849 646.634 368.986 646.223 374.064 645.719L374.264 647.633C369.156 648.133 363.996 648.543 358.917 648.855M389.565 645.84L389.279 643.94L389.751 643.876C394.634 643.212 399.571 642.435 404.43 641.568L404.76 643.46C399.884 644.328 394.919 645.109 389.999 645.78L389.565 645.84ZM282.159 645.659C277.126 644.906 272.018 644.025 266.993 643.038L267.369 641.155C272.364 642.135 277.435 643.012 282.444 643.762L282.159 645.659ZM419.85 640.431L419.43 638.558C424.388 637.451 429.383 636.214 434.288 634.882L434.799 636.734C429.863 638.073 424.832 639.319 419.85 640.434M251.964 639.726C246.975 638.504 241.973 637.154 237.097 635.713L237.637 633.869C242.491 635.305 247.464 636.644 252.413 637.858L251.964 639.726ZM449.552 632.375L448.968 630.545C453.813 628.993 458.68 627.313 463.436 625.545L464.111 627.345C459.319 629.122 454.428 630.813 449.552 632.373M222.438 631C217.593 629.313 212.738 627.49 208.023 625.584L208.742 623.807C213.43 625.697 218.253 627.507 223.067 629.185L222.438 631ZM478.41 621.662L477.66 619.893C482.37 617.893 487.06 615.767 491.595 613.581L492.436 615.312C487.868 617.512 483.151 619.644 478.41 621.662ZM193.884 619.488C189.263 617.357 184.614 615.074 180.06 612.704L180.947 611.004C185.476 613.359 190.097 615.628 194.694 617.744L193.884 619.488ZM506.147 608.322L505.231 606.635C509.678 604.235 514.157 601.69 518.537 599.061L519.528 600.703C515.128 603.35 510.617 605.913 506.148 608.323M166.592 605.257C162.234 602.707 157.823 599.98 153.492 597.157L154.543 595.552C158.843 598.352 163.221 601.061 167.562 603.597L166.592 605.257ZM532.542 592.471L531.477 590.871C535.677 588.071 539.899 585.121 544.018 582.095L545.158 583.64C541.01 586.684 536.765 589.656 532.542 592.467M140.8 588.43C136.683 585.453 132.542 582.306 128.514 579.081L129.714 577.581C133.72 580.788 137.83 583.915 141.925 586.881L140.8 588.43ZM557.309 574.267L556.109 572.773C560.024 569.608 563.953 566.29 567.771 562.908L569.046 564.347C565.206 567.747 561.253 571.086 557.307 574.267M116.691 569.167C112.873 565.798 109.064 562.277 105.359 558.696L106.692 557.315C110.375 560.874 114.164 564.376 117.965 567.726L116.691 569.167ZM580.34 553.9L579.005 552.519C582.628 549.019 586.243 545.359 589.753 541.643L591.153 542.964C587.62 546.698 583.982 550.378 580.345 553.9M337.334 549.759C333.899 549.759 330.382 549.691 326.871 549.559L326.948 547.638C332.099 547.829 337.202 547.881 342.255 547.793L342.286 549.712C340.643 549.743 338.992 549.759 337.335 549.758M357.685 549L357.535 547.086C362.628 546.703 367.75 546.176 372.752 545.512L373.007 547.412C367.967 548.08 362.807 548.612 357.684 548.995M311.49 548.533C306.39 548.048 301.244 547.415 296.196 546.647L296.481 544.747C301.499 545.51 306.607 546.139 311.669 546.619L311.49 548.533ZM94.541 547.699C91.055 543.999 87.589 540.14 84.241 536.229L85.697 534.976C89.026 538.865 92.47 542.705 95.934 546.388L94.541 547.699ZM388.212 544.946L387.851 543.064C392.831 542.108 397.864 540.99 402.793 539.749L403.256 541.61C398.292 542.861 393.229 543.987 388.212 544.946ZM281.038 543.9C276.005 542.842 270.965 541.623 266.052 540.288L266.563 538.435C271.437 539.763 276.441 540.971 281.428 542.025L281.038 543.9ZM418.092 537.4L417.508 535.57C422.353 534.036 427.208 532.338 431.945 530.513L432.636 532.306C427.866 534.143 422.968 535.854 418.092 537.399M251.292 535.816C246.431 534.185 241.564 532.392 236.823 530.488L237.544 528.702C242.244 530.602 247.077 532.378 251.908 533.994L251.292 535.816ZM601.476 531.56L600.02 530.303C603.387 526.403 606.68 522.443 609.794 518.524L611.294 519.717C608.166 523.657 604.858 527.645 601.476 531.56ZM446.84 526.332L446.04 524.584C450.661 522.484 455.274 520.197 459.751 517.796L460.651 519.491C456.143 521.906 451.492 524.21 446.835 526.332M222.702 524.303C219.619 522.844 216.553 521.31 213.574 519.75C212.036 518.922 210.513 518.081 209.006 517.227L209.951 515.554C211.445 516.401 212.955 517.234 214.482 518.054C217.423 519.599 220.467 521.122 223.526 522.573L222.702 524.303ZM74.48 524.303C71.337 520.279 68.239 516.12 65.28 511.939L66.84 510.828C69.795 514.984 72.871 519.121 75.999 523.117L74.48 524.303ZM474.017 511.786L473 510.16C474.529 509.211 476.043 508.246 477.544 507.265C480.237 505.365 482.914 503.418 485.544 501.446L486.699 502.984C484.06 504.963 481.37 506.919 478.629 508.852C477.084 509.861 475.555 510.831 474.029 511.789M195.9 509.126C191.655 506.288 187.454 503.238 183.412 500.073L184.598 498.559C188.598 501.702 192.765 504.716 196.966 507.528L195.9 509.126ZM620.631 507.464L619.071 506.331C622.071 502.214 625.011 497.984 627.816 493.761L629.421 494.826C626.594 499.067 623.639 503.326 620.631 507.464ZM56.64 499.184C53.84 494.861 51.127 490.443 48.563 486.055L50.228 485.086C52.771 489.448 55.471 493.84 58.245 498.142L56.64 499.184ZM498.8 493.451L497.57 491.973C501.501 488.713 505.385 485.327 509.099 481.911L510.399 483.321C506.656 486.763 502.749 490.173 498.8 493.451ZM171.634 490.113C167.834 486.656 164.134 483.021 160.634 479.313L162.034 477.994C165.507 481.671 169.174 485.272 172.934 488.7L171.634 490.113ZM637.668 481.84L636.033 480.84C638.704 476.429 641.29 471.971 643.722 467.584L645.402 468.514C642.956 472.923 640.362 477.405 637.667 481.838M521.467 472.6L520.086 471.257C523.686 467.576 527.186 463.802 530.486 460.036L531.927 461.304C528.603 465.093 525.086 468.894 521.464 472.604M41.08 472.584C38.718 468.106 36.399 463.467 34.186 458.799L35.926 457.982C38.117 462.625 40.426 467.238 42.774 471.693L41.08 472.584ZM150.45 467.717C147.201 463.729 144.074 459.594 141.141 455.417L142.717 454.317C145.617 458.458 148.717 462.557 151.935 466.506L150.45 467.717ZM652.582 454.891L650.873 454.028C653.139 449.51 655.359 444.854 657.466 440.197L659.221 440.997C657.1 445.678 654.863 450.353 652.583 454.897M541.766 449.445L540.252 448.259C543.401 444.231 546.447 440.083 549.311 435.937L550.887 437.024C548.007 441.205 544.931 445.382 541.766 449.445ZM333.272 445.279C328.15 445.073 322.972 444.637 317.881 443.979L318.12 442.079C323.16 442.725 328.284 443.155 333.346 443.358L333.272 445.279ZM348.715 445.226L348.624 443.305C353.739 443.059 358.863 442.586 363.836 441.905L364.09 443.811C359.066 444.501 353.89 444.977 348.716 445.228M27.91 444.732C25.91 439.965 23.993 435.146 22.231 430.405L24.031 429.737C25.786 434.453 27.683 439.245 29.679 443.989L27.91 444.732ZM132.749 442.481C130.109 438.087 127.596 433.548 125.279 428.991L126.988 428.121C129.288 432.638 131.782 437.138 134.4 441.49L132.749 442.481ZM302.669 441.337C297.636 440.232 292.62 438.889 287.744 437.337L288.33 435.505C293.146 437.036 298.109 438.367 303.075 439.458L302.669 441.337ZM379.294 441.007L378.858 439.139C383.823 437.992 388.767 436.602 393.558 435.007L394.158 436.829C389.32 438.442 384.318 439.848 379.293 441.006M273.275 431.962C268.535 429.941 263.904 427.674 259.399 425.172L260.329 423.492C264.778 425.961 269.35 428.199 274.029 430.198L273.275 431.962ZM408.565 431.238L407.786 429.483C412.433 427.414 416.972 425.111 421.386 422.583L422.347 424.249C417.921 426.783 413.279 429.134 408.56 431.239M665.3 426.832L663.514 426.112C665.428 421.412 667.279 416.603 669.019 411.805L670.819 412.458C669.071 417.277 667.212 422.115 665.3 426.832ZM559.28 424.09L557.629 423.09C560.3 418.683 562.835 414.201 565.159 409.775L566.854 410.669C564.515 415.131 561.965 419.642 559.28 424.086M246.311 416.932C242.102 413.941 238.077 410.698 234.259 407.222L235.549 405.805C239.312 409.227 243.277 412.419 247.423 415.366L246.311 416.932ZM435.343 415.874L434.218 414.314C438.343 411.339 442.309 408.15 446.099 404.759L447.374 406.191C443.537 409.628 439.522 412.86 435.344 415.874M17.177 415.845C15.625 411.036 14.14 406.071 12.752 401.084L14.598 400.566C15.977 405.531 17.462 410.475 19.007 415.252L17.177 415.845ZM118.747 415.011C116.759 410.358 114.883 405.523 113.16 400.644L114.975 400.007C116.675 404.845 118.545 409.64 120.517 414.261L118.747 415.011ZM675.783 397.873L673.953 397.287C675.498 392.455 676.976 387.515 678.333 382.602L680.177 383.111C678.812 388.051 677.335 393.017 675.783 397.873ZM573.613 396.814L571.858 396.028C573.958 391.351 575.922 386.595 577.701 381.889L579.501 382.571C577.708 387.308 575.729 392.101 573.613 396.814ZM223.533 396.061C220.212 392.108 217.174 387.925 214.443 383.543L216.077 382.531C218.759 386.836 221.742 390.946 225.003 394.831L223.533 396.061ZM458.317 395.289L456.893 394C460.301 390.224 463.51 386.273 466.508 382.163L468.053 383.296C465.019 387.461 461.77 391.465 458.317 395.29M8.971 386.138C7.816 381.094 6.766 376.017 5.843 371.045L7.733 370.7C8.649 375.642 9.692 380.693 10.847 385.711L8.971 386.138ZM108.538 385.938C107.157 381.016 105.92 375.98 104.855 370.967L106.73 370.567C107.788 375.54 109.018 380.534 110.382 385.418L108.538 385.938ZM476.5 370.366L474.849 369.397C477.377 365.066 479.754 360.517 481.899 355.874L483.639 356.674C481.472 361.374 479.064 365.983 476.499 370.363M207.299 369.816C205.272 365.064 203.607 360.165 202.319 355.162L204.178 354.682C205.44 359.591 207.075 364.397 209.069 369.057L207.299 369.816ZM684.021 368.203L682.146 367.76C683.302 362.873 684.397 357.833 685.388 352.778L687.278 353.145C686.273 358.227 685.178 363.293 684.022 368.204M584.5 368L582.67 367.435C584.17 362.575 585.534 357.614 586.727 352.694L588.588 353.143C587.388 358.105 586.016 363.105 584.5 368.001M3.36 355.836C2.649 350.767 2.041 345.617 1.56 340.526L3.46 340.345C3.947 345.407 4.547 350.526 5.26 355.566L3.36 355.836ZM102.125 355.792C101.375 350.699 100.775 345.546 100.348 340.48L102.267 340.323C102.688 345.347 103.281 350.458 104.031 355.515L102.125 355.792ZM489.34 342.292L487.494 341.745C488.957 336.865 490.232 331.885 491.294 326.945L493.169 327.345C492.104 332.334 490.814 337.362 489.344 342.29M199.619 339.924C199.236 336.183 199.043 332.425 199.043 328.665C199.043 327.273 199.065 325.876 199.118 324.465L201.037 324.542C200.986 325.925 200.961 327.301 200.962 328.67C200.961 332.365 201.149 336.058 201.526 339.734L199.619 339.924ZM591.775 338.056L589.885 337.719C590.777 332.754 591.536 327.664 592.136 322.591L594.036 322.815C593.429 327.93 592.671 333.056 591.77 338.056M689.944 337.981L688.052 337.681C688.84 332.661 689.539 327.548 690.137 322.497L692.043 322.723C691.443 327.8 690.737 332.935 689.943 337.982M366.581 337.2L365.424 335.67C369.467 332.62 373.235 329.221 376.683 325.511L378.093 326.811C374.568 330.606 370.716 334.082 366.581 337.2ZM0.436 325.154C0.181 320.099 0.036 314.919 0 309.754L1.921 309.745C1.95 314.876 2.092 320.03 2.355 325.054L0.436 325.154ZM99.531 325.087C99.4857 323.194 99.4633 321.301 99.464 319.408C99.464 316.108 99.524 312.83 99.65 309.669L101.571 309.744C101.443 312.883 101.383 316.136 101.383 319.409C101.383 321.284 101.405 323.162 101.45 325.042L99.531 325.087ZM387.372 314.354L385.707 313.387C388.257 309.032 390.258 304.379 391.663 299.532L393.507 300.065C392.061 305.063 390 309.863 387.372 314.354ZM495.759 312.134L493.859 311.893C494.505 306.816 494.939 301.693 495.159 296.676L497.08 296.758C496.863 301.833 496.42 307.008 495.767 312.134M202.567 309.389L200.677 309.083C201.508 303.992 202.62 298.951 204.008 293.983L205.852 294.501C204.49 299.399 203.394 304.368 202.567 309.384M595.398 307.459L593.479 307.348C593.779 302.273 593.928 297.129 593.928 292.054H595.849C595.849 297.165 595.699 302.348 595.398 307.459ZM693.577 307.397L691.658 307.246C692.063 302.177 692.369 297.031 692.581 291.946L694.5 292.021C694.29 297.129 693.975 302.3 693.577 307.393M102.643 294.484L100.743 294.284C101.259 289.184 101.943 284.039 102.775 278.999L104.665 279.315C103.84 284.315 103.165 289.415 102.647 294.479M2.2 294.427L0.279 294.352C0.479 289.352 0.812 284.179 1.255 278.972L3.176 279.138C2.733 284.313 2.403 289.457 2.2 294.426M395.841 284.672L393.92 284.643L393.936 283.311C393.928 278.709 393.413 274.122 392.398 269.633L394.273 269.213C395.317 273.841 395.848 278.569 395.855 283.313L395.841 284.672ZM495.16 281.403C494.936 276.303 494.501 271.188 493.86 266.188L495.76 265.949C496.406 270.996 496.849 276.168 497.073 281.32L495.16 281.403ZM210.65 280.011L208.85 279.321C210.627 274.686 212.69 269.921 214.985 265.16L216.711 265.992C214.445 270.706 212.406 275.425 210.651 280.011M593.5 276.769C593.215 271.743 592.779 266.612 592.21 261.517L594.11 261.305C594.688 266.433 595.122 271.597 595.416 276.655L593.5 276.769ZM694.822 276.63H692.9V275.778C692.9 270.978 692.809 266.11 692.63 261.314L694.549 261.237C694.73 266.064 694.819 270.954 694.819 275.777L694.822 276.63ZM107.637 264.314L105.762 263.88C106.911 258.915 108.245 253.9 109.731 248.98L111.575 249.535C110.097 254.418 108.775 259.391 107.637 264.318M4.876 263.92L2.97 263.666C3.67 258.546 4.493 253.431 5.416 248.451L7.306 248.803C6.383 253.75 5.566 258.84 4.876 263.92ZM387.476 255.345C385.321 250.764 382.726 246.403 379.727 242.324L381.272 241.191C384.347 245.368 387.007 249.835 389.214 254.528L387.476 255.345ZM223.833 252.472L222.168 251.52C223.168 249.773 224.201 248.017 225.268 246.254C227.495 243.828 229.693 241.586 231.913 239.441L233.248 240.822C231.048 242.944 228.875 245.16 226.79 247.407C225.845 248.999 224.825 250.74 223.828 252.473M491.269 251.145C490.211 246.225 488.921 241.256 487.435 236.38L489.266 235.818C490.773 240.745 492.066 245.767 493.142 250.74L491.269 251.145ZM590.056 246.36C589.232 241.44 588.234 236.384 587.108 231.34L588.983 230.92C590.116 235.998 591.114 241.086 591.945 246.044L590.056 246.36ZM691.769 246.015C691.379 240.889 690.884 235.754 690.306 230.767L692.206 230.543C692.792 235.559 693.286 240.716 693.684 245.87L691.769 246.015ZM116.466 235.039L114.666 234.364C116.466 229.572 118.453 224.78 120.584 220.121L122.324 220.921C120.224 225.542 118.251 230.294 116.467 235.044M10.457 233.825L8.582 233.384C9.76 228.404 11.082 223.393 12.513 218.484L14.357 219.024C12.94 223.896 11.626 228.877 10.457 233.825ZM369.672 230.964C365.993 227.481 362.02 224.323 357.798 221.524L358.863 219.924C363.176 222.782 367.234 226.008 370.99 229.567L369.672 230.964ZM244.738 230.791L243.552 229.284C247.603 226.091 251.838 223.14 256.235 220.444L257.24 222.08C252.908 224.739 248.734 227.647 244.74 230.79M482.388 221.974C480.529 217.29 478.444 212.598 476.179 208.03L477.903 207.176C480.183 211.795 482.303 216.536 484.175 221.268L482.388 221.974ZM583.38 216.491C582.03 211.67 580.509 206.744 578.865 201.859L580.68 201.242C582.338 206.164 583.869 211.116 585.226 215.974L583.38 216.491ZM688.236 215.591C687.455 210.633 686.549 205.556 685.544 200.507L687.434 200.133C688.439 205.206 689.348 210.306 690.127 215.29L688.236 215.591ZM270.729 215.029L269.948 213.272C274.682 211.187 279.567 209.462 284.56 208.11L285.054 209.962C280.158 211.289 275.37 212.982 270.729 215.029ZM344.488 214.249C339.851 212.209 335.048 210.568 330.132 209.344L330.597 207.483C335.621 208.732 340.529 210.408 345.267 212.494L344.488 214.249ZM129.16 207.249L127.48 206.333C129.946 201.796 132.588 197.333 135.324 193.062L136.946 194.096C134.223 198.326 131.605 202.753 129.16 207.249ZM299.98 207.21L299.78 205.298C302.841 204.998 305.825 204.877 308.932 204.84C311.039 204.84 313.177 204.915 315.284 205.064L315.149 206.978C313.086 206.836 310.994 206.759 308.932 206.759H308.826C305.87 206.761 302.916 206.912 299.975 207.21M18.992 204.45L17.177 203.821C18.857 198.983 20.677 194.138 22.593 189.415L24.377 190.136C22.465 194.828 20.658 199.647 18.992 204.45ZM468.863 194.621C466.253 190.263 463.44 185.962 460.499 181.837L462.06 180.719C465.037 184.889 467.879 189.236 470.511 193.631L468.863 194.621ZM573.591 187.468C571.691 182.694 569.674 177.955 567.591 173.376L569.348 172.576C571.44 177.176 573.473 181.95 575.377 186.759L573.591 187.468ZM682.248 185.542C681.055 180.606 679.748 175.622 678.341 170.728L680.185 170.203C681.595 175.121 682.916 180.13 684.109 185.092L682.248 185.542ZM145.657 181.547L144.128 180.392C147.228 176.268 150.502 172.243 153.855 168.433L155.3 169.7C151.976 173.472 148.737 177.458 145.661 181.546M30.5 176.133L28.76 175.316C30.951 170.657 33.268 166.033 35.654 161.571L37.349 162.478C34.979 166.911 32.677 171.506 30.501 176.134M451.175 169.748C447.933 165.877 444.484 162.066 440.914 158.425L442.278 157.082C445.886 160.758 449.378 164.605 452.643 168.516L451.175 169.748ZM560.9 159.6C558.521 155.032 556.039 150.516 553.512 146.181L555.177 145.212C557.711 149.574 560.217 154.112 562.609 158.712L560.9 159.6ZM165.81 158.635L164.475 157.256C168.175 153.662 172.029 150.191 175.936 146.942L177.166 148.42C173.297 151.638 169.472 155.073 165.811 158.635M673.811 156.085C672.229 151.297 670.504 146.441 668.681 141.659L670.481 140.975C672.303 145.784 674.044 150.667 675.642 155.485L673.811 156.085ZM44.928 149.192L43.294 148.192C45.894 143.905 48.701 139.547 51.627 135.246L53.216 136.326C50.306 140.602 47.516 144.926 44.929 149.19M429.794 147.929C425.961 144.587 421.965 141.362 417.894 138.336L419.034 136.798C423.146 139.852 427.188 143.11 431.05 146.481L429.794 147.929ZM189.294 139.12L188.183 137.551C192.369 134.596 196.726 131.772 201.129 129.16L202.103 130.809C197.747 133.398 193.433 136.194 189.294 139.12ZM545.47 133.142C542.71 128.912 539.786 124.667 536.77 120.53L538.33 119.397C541.353 123.563 544.3 127.836 547.075 132.091L545.47 133.142ZM405.29 129.713C400.968 127 396.514 124.443 392.036 122.113L392.923 120.413C397.445 122.772 401.953 125.357 406.311 128.095L405.29 129.713ZM662.935 127.462C660.935 122.79 658.794 118.098 656.589 113.52L658.315 112.686C660.535 117.292 662.68 122.006 664.705 126.705L662.935 127.462ZM62.194 123.938L60.664 122.767C63.8 118.681 67.064 114.653 70.364 110.8L71.818 112.046C68.54 115.875 65.307 119.875 62.194 123.938ZM215.532 123.522L214.678 121.804C219.246 119.546 223.978 117.428 228.748 115.504L229.469 117.283C224.743 119.195 220.047 121.294 215.532 123.527M378.216 115.595C373.482 113.595 368.676 111.795 363.916 110.228L364.516 108.406C369.323 109.988 374.184 111.806 378.969 113.824L378.216 115.595ZM243.831 112.083L243.247 110.253C246.802 109.109 250.462 108.037 254.123 107.07C255.405 106.683 256.717 106.308 258.03 105.944L258.539 107.797C257.242 108.153 255.945 108.525 254.646 108.913C250.987 109.885 247.357 110.945 243.83 112.082M527.457 108.382C524.27 104.425 520.932 100.5 517.55 96.707L518.975 95.425C522.388 99.243 525.739 103.196 528.957 107.175L527.457 108.382ZM349.217 106.05C344.252 104.868 339.204 103.885 334.217 103.131L334.502 101.231C339.55 101.992 344.65 102.986 349.668 104.179L349.217 106.05ZM273.411 104.328L273.05 102.445C278.09 101.485 283.229 100.727 288.329 100.19L288.529 102.104C283.489 102.633 278.403 103.383 273.416 104.328M319.041 101.493C314.015 101.166 308.941 101.061 303.771 101.152L303.74 99.231C308.893 99.131 314.083 99.246 319.162 99.579L319.041 101.493ZM82.077 100.7L80.677 99.372C84.165 95.724 87.833 92.072 91.598 88.516L92.917 89.91C89.176 93.443 85.529 97.074 82.072 100.7M649.632 99.868C647.232 95.39 644.688 90.9 642.093 86.531L643.744 85.548C646.354 89.948 648.905 94.455 651.327 98.959L649.632 99.868ZM507.054 85.543C503.448 81.909 499.726 78.343 495.999 74.943L497.289 73.524C501.047 76.944 504.789 80.534 508.42 84.194L507.054 85.543ZM104.323 79.713L103.079 78.25C106.979 74.937 111.014 71.687 115.071 68.593L116.24 70.12C112.205 73.196 108.201 76.42 104.323 79.713ZM484.41 64.924C480.428 61.673 476.354 58.516 472.297 55.539L473.437 53.994C477.518 56.994 481.62 60.167 485.624 63.44L484.41 64.924ZM128.625 61.133L127.525 59.55C131.719 56.671 136.053 53.838 140.418 51.135L141.423 52.771C137.089 55.456 132.784 58.271 128.623 61.133M459.72 46.8C455.437 44 451.05 41.3 446.677 38.763L447.637 37.098C452.048 39.652 456.464 42.375 460.769 45.198L459.72 46.8ZM154.643 45.029L153.713 43.349C158.153 40.886 162.735 38.478 167.341 36.191L168.197 37.908C163.615 40.185 159.062 42.581 154.643 45.029ZM433.213 31.45C428.653 29.133 423.995 26.928 419.353 24.888L420.126 23.131C424.798 25.183 429.493 27.407 434.083 29.74L433.213 31.45ZM182.042 31.393L181.261 29.638C185.904 27.584 190.674 25.581 195.461 23.695L196.161 25.479C191.405 27.358 186.65 29.35 182.038 31.393M210.51 20.143L209.879 18.328C214.724 16.641 219.646 15.028 224.505 13.543L225.06 15.38C220.23 16.858 215.332 18.463 210.51 20.143ZM405.181 19.127C400.418 17.341 395.551 15.676 390.713 14.169L391.282 12.339C396.151 13.853 401.056 15.529 405.855 17.326L405.181 19.127ZM239.781 11.161L239.287 9.309C244.214 7.992 249.24 6.748 254.22 5.599L254.656 7.474C249.691 8.61 244.686 9.853 239.781 11.161ZM375.982 10.037C371.036 8.8 366.01 7.7 361.045 6.749L361.406 4.866C366.401 5.818 371.463 6.931 376.45 8.177L375.982 10.037ZM269.676 4.693L269.406 2.793C274.528 2.087 279.682 1.511 284.722 1.078L284.888 2.992C279.877 3.419 274.762 3.992 269.676 4.698M345.956 4.322C340.956 3.654 335.837 3.122 330.744 2.729L330.894 0.815003C336.018 1.205 341.17 1.745 346.21 2.415L345.956 4.322ZM300.166 2.08L300.1 0.155003C305.268 -0.0199969 310.414 -0.0379969 315.505 0.0620031L315.461 1.983C310.404 1.881 305.304 1.912 300.161 2.076" fill="#CECECE"/>
<path d="M345.076 349.995L344.266 348.255C346.621 347.155 348.916 345.999 351.076 344.827L351.992 346.514C349.792 347.703 347.47 348.873 345.077 349.995" fill="#CECECE"/>
</g>

</g>
<defs>
<clipPath id="clip0_205_66">
<rect width="694.818" height="649.562" fill="white"/>
</clipPath>
<clipPath id="clip1_205_66">
<rect width="64" height="64" fill="white" transform="translate(315 314)"/>
</clipPath>
<clipPath id="clip2_205_66">
<rect width="64" height="64" fill="white" transform="translate(171 267)"/>
</clipPath>
</defs>
</svg>
