<svg width="1408" height="356" viewBox="0 0 1408 356" fill="none" xmlns="http://www.w3.org/2000/svg">
<path d="M30.0301 263.14C29.2501 262.28 28.8601 261.31 28.8601 260.21V104.96C28.8601 103.87 29.2501 102.9 30.0301 102.03C30.8101 101.17 31.7501 100.74 32.8401 100.74H55.7901C57.3501 100.74 58.5201 101.52 59.3001 103.08L94.9001 162.1C95.0601 162.41 95.4901 162.88 96.1901 163.51C96.8901 164.14 97.7901 164.45 98.8801 164.45H99.3501C100.44 164.45 101.26 164.1 101.81 163.4C102.35 162.7 102.7 162.19 102.86 161.88L138.22 103.34C139.31 101.62 140.56 100.76 141.97 100.76H165.15C166.24 100.76 167.18 101.19 167.96 102.05C168.74 102.91 169.13 103.89 169.13 104.98V260.23C169.13 261.33 168.74 262.3 167.96 263.16C167.18 264.02 166.24 264.45 165.15 264.45H142.2C140.95 264.45 139.94 264.06 139.16 263.28C138.38 262.5 137.99 261.48 137.99 260.23V167.27C137.99 165.71 137.68 164.93 137.05 164.93C136.42 164.93 135.72 165.56 134.94 166.8L110.35 201.69C108.94 203.72 107.73 205.05 106.72 205.67C105.7 206.3 103.95 206.61 101.45 206.61H97.4701C94.5001 206.61 92.4701 206.38 91.3801 205.91C90.2901 205.44 89.1901 204.43 88.1001 202.86L62.8101 167.04C61.8701 165.63 61.1701 164.93 60.7001 164.93C60.0701 164.93 59.7601 165.63 59.7601 167.04V260.23C59.7601 261.33 59.3701 262.3 58.5901 263.16C57.8101 264.02 56.7901 264.45 55.5501 264.45H32.8401C31.7501 264.43 30.8201 264 30.0301 263.14Z" fill="black"/>
<path d="M199.78 263.14C198.92 262.28 198.49 261.31 198.49 260.21V104.73C198.49 103.48 198.96 102.43 199.89 101.57C200.83 100.71 201.84 100.28 202.94 100.28H227.29C228.38 100.28 229.36 100.71 230.22 101.57C231.08 102.43 231.51 103.48 231.51 104.73V260.21C231.51 261.31 231.12 262.28 230.34 263.14C229.56 264 228.54 264.43 227.3 264.43H202.95C201.69 264.43 200.63 264 199.78 263.14Z" fill="black"/>
<path d="M256.89 261.15C256.89 259.9 257.2 258.89 257.83 258.11L303.73 184.35L255.02 106.14C254.39 105.36 254.08 104.27 254.08 102.86C254.08 101.15 254.86 100.28 256.42 100.28H280.54C283.82 100.28 285.84 100.91 286.63 102.15L320.82 156.71L354.77 102.15C355.86 100.9 357.97 100.28 361.09 100.28H385.21C386.77 100.28 387.55 101.14 387.55 102.86C387.55 103.49 387.24 104.58 386.61 106.14L337.91 184.35L383.8 258.11C384.42 258.89 384.74 259.91 384.74 261.15C384.74 263.02 383.8 263.96 381.93 263.96H358.28C355.16 263.96 352.97 263.1 351.72 261.39L320.81 211.75L289.67 261.39C288.58 263.11 286.39 263.96 283.11 263.96H259.7C257.83 263.96 256.89 263.02 256.89 261.15Z" fill="black"/>
<path d="M496.36 256.11C483.32 248.54 473.02 238.24 465.45 225.2C457.88 212.17 454.09 197.92 454.09 182.46C454.09 167.01 457.87 152.76 465.45 139.73C473.02 126.7 483.32 116.39 496.36 108.82C509.39 101.25 523.64 97.46 539.09 97.46C542.68 97.46 546.19 97.7 549.63 98.16C551.04 98.32 552.13 98.94 552.91 100.03C553.69 101.13 553.92 102.37 553.61 103.78L549.86 124.15C549.39 126.65 547.83 127.9 545.18 127.9L539.09 127.67C529.25 127.67 520.12 130.13 511.69 135.05C503.26 139.97 496.59 146.64 491.67 155.07C486.75 163.5 484.29 172.63 484.29 182.46C484.29 192.3 486.75 201.43 491.67 209.86C496.59 218.29 503.26 224.96 511.69 229.88C520.12 234.8 529.25 237.26 539.09 237.26C550.48 237.26 560.48 234.02 569.06 227.54C577.64 221.07 583.97 212.44 588.03 201.67H557.82C556.57 201.67 555.48 201.2 554.54 200.27C553.6 199.33 553.13 198.24 553.13 196.99V179.9C553.13 178.65 553.6 177.56 554.54 176.62C555.48 175.68 556.57 175.21 557.82 175.21H607.7C611.45 175.21 614.33 175.84 616.37 177.08C618.4 178.33 619.41 180.13 619.41 182.47C619.41 198.08 615.97 212.37 609.11 225.32C602.24 238.28 592.68 248.54 580.43 256.11C568.17 263.68 554.4 267.47 539.1 267.47C523.64 267.47 509.39 263.69 496.36 256.11Z" fill="black"/>
<path d="M639.7 263.02C638.68 262.08 638.18 260.91 638.18 259.51V105.2C638.18 103.95 638.69 102.82 639.7 101.8C640.71 100.79 641.85 100.28 643.1 100.28H667.22C668.62 100.28 669.79 100.79 670.73 101.8C671.67 102.82 672.13 103.95 672.13 105.2V228.6C672.13 229.85 672.6 230.98 673.54 232C674.48 233.02 675.57 233.52 676.82 233.52H733.49C734.9 233.52 736.07 233.99 737 234.92C737.94 235.86 738.41 236.95 738.41 238.2V259.51C738.41 260.91 737.94 262.08 737 263.02C736.06 263.96 734.89 264.43 733.49 264.43H643.1C641.84 264.43 640.71 263.96 639.7 263.02Z" fill="black"/>
<path d="M1005.09 259.74V105.66C1005.09 103.63 1005.4 102.34 1006.03 101.8C1006.65 101.26 1008.06 100.98 1010.24 100.98H1054.26C1062.84 100.98 1070.77 103.09 1078.03 107.3C1085.29 111.52 1091.06 117.25 1095.36 124.51C1099.65 131.77 1101.8 139.77 1101.8 148.51C1101.8 158.03 1099.23 166.54 1094.07 174.03C1102.03 178.56 1108.27 184.57 1112.8 192.06C1117.33 199.55 1119.59 207.67 1119.59 216.41C1119.59 225 1117.48 232.92 1113.27 240.18C1109.05 247.44 1103.28 253.21 1095.94 257.51C1088.6 261.8 1080.56 263.95 1071.82 263.95L1011.17 264.19C1007.11 264.19 1005.09 262.71 1005.09 259.74ZM1054.72 168.65C1060.18 168.65 1064.87 166.66 1068.77 162.68C1072.67 158.7 1074.62 153.98 1074.62 148.51C1074.62 142.89 1072.59 138.09 1068.53 134.11C1064.47 130.13 1059.71 128.14 1054.25 128.14H1037.15C1033.87 128.14 1032.23 130.25 1032.23 134.46V162.79C1032.23 166.7 1034.18 168.64 1038.09 168.64H1054.72V168.65ZM1069.24 236.79C1075.02 236.79 1079.85 234.84 1083.76 230.94C1087.66 227.04 1089.61 222.2 1089.61 216.42C1089.61 210.64 1087.66 205.81 1083.76 201.9C1079.85 198 1075.02 196.05 1069.24 196.05H1038.1C1034.19 196.05 1032.24 198 1032.24 201.9V231.17C1032.24 235.08 1034.19 237.02 1038.1 237.02L1069.24 236.79Z" fill="black"/>
<path d="M1130.33 263.72C1129.86 263.1 1129.7 262.39 1129.86 261.61L1171.31 104.02C1171.62 103.08 1172.2 102.26 1173.06 101.56C1173.92 100.86 1174.89 100.51 1175.99 100.51H1224.69C1225.63 100.51 1226.56 100.82 1227.5 101.45C1228.44 102.08 1229.06 102.85 1229.37 103.79L1270.82 261.38V262.08C1270.82 263.8 1270.04 264.66 1268.48 264.66H1245.53C1244.59 264.66 1243.62 264.31 1242.6 263.61C1241.58 262.91 1241 262.09 1240.84 261.15L1229.36 217.6C1229.05 216.2 1228.27 215.03 1227.02 214.09C1225.77 213.15 1224.44 212.68 1223.04 212.68H1177.61C1176.21 212.68 1174.88 213.15 1173.63 214.09C1172.38 215.03 1171.6 216.2 1171.29 217.6L1159.81 260.92C1159.65 262.02 1159.07 262.91 1158.05 263.61C1157.03 264.31 1156.06 264.66 1155.12 264.66H1132.17C1131.42 264.66 1130.8 264.35 1130.33 263.72ZM1215.8 187.62C1217.36 187.62 1218.57 187.08 1219.43 185.98C1220.29 184.89 1220.56 183.64 1220.25 182.23L1207.13 134C1206.97 132.75 1206.27 131.66 1205.02 130.72C1203.77 129.78 1202.44 129.32 1201.04 129.32H1199.63C1198.23 129.32 1196.9 129.79 1195.65 130.72C1194.4 131.66 1193.7 132.75 1193.54 134L1180.66 182.24L1180.42 183.41C1180.42 184.66 1180.81 185.68 1181.59 186.46C1182.37 187.24 1183.46 187.63 1184.87 187.63H1215.8V187.62Z" fill="black"/>
<path d="M1292.75 263.02C1291.73 262.08 1291.23 260.91 1291.23 259.51V105.2C1291.23 103.95 1291.74 102.82 1292.75 101.8C1293.76 100.79 1294.9 100.28 1296.15 100.28H1320.27C1321.67 100.28 1322.84 100.79 1323.78 101.8C1324.72 102.82 1325.18 103.95 1325.18 105.2V228.6C1325.18 229.85 1325.65 230.98 1326.59 232C1327.53 233.02 1328.62 233.52 1329.87 233.52H1386.54C1387.95 233.52 1389.12 233.99 1390.05 234.92C1390.99 235.86 1391.46 236.95 1391.46 238.2V259.51C1391.46 260.91 1390.99 262.08 1390.05 263.02C1389.11 263.96 1387.94 264.43 1386.54 264.43H1296.16C1294.89 264.43 1293.76 263.96 1292.75 263.02Z" fill="black"/>
<path d="M1378.9 187.93H1374.69V201.13H1365.48V185.65H1361.26V205.36H1392.4V201.13H1378.9V187.93Z" fill="black"/>
<path d="M1388.17 176.54L1361.26 161.41V182.78H1365.46L1365.48 168.61L1392.4 183.75V162.59H1388.17V176.54Z" fill="black"/>
<path d="M1368.77 160.56C1371.19 162 1373.9 162.73 1376.83 162.73C1379.75 162.73 1382.45 162 1384.87 160.56C1387.27 159.12 1389.21 157.18 1390.64 154.77C1392.08 152.35 1392.81 149.63 1392.81 146.7C1392.81 143.79 1392.09 141.09 1390.68 138.68C1389.27 136.28 1387.36 134.35 1384.99 132.93L1382.93 131.7V136.66L1383.51 137.07C1385.06 138.15 1386.31 139.54 1387.22 141.21C1388.12 142.87 1388.58 144.71 1388.58 146.7C1388.58 148.85 1388.05 150.83 1387 152.58C1385.94 154.35 1384.5 155.79 1382.72 156.85C1379.19 158.96 1374.42 158.94 1370.91 156.85C1369.13 155.79 1367.69 154.35 1366.63 152.58C1365.58 150.83 1365.05 148.85 1365.05 146.7C1365.05 144.57 1365.57 142.6 1366.61 140.85C1367.66 139.08 1369.07 137.65 1370.82 136.6L1371.48 136.2V131.39L1369.49 132.44C1366.89 133.81 1364.78 135.77 1363.21 138.26C1361.63 140.77 1360.83 143.61 1360.83 146.69C1360.83 149.62 1361.56 152.33 1363 154.76C1364.42 157.18 1366.36 159.12 1368.77 160.56Z" fill="black"/>
<path d="M1368.74 128.12C1371.15 129.49 1373.84 130.18 1376.76 130.18C1379.66 130.18 1382.36 129.49 1384.77 128.12C1387.17 126.76 1389.12 124.91 1390.55 122.62C1392 120.3 1392.73 117.71 1392.73 114.91C1392.73 112.1 1392 109.5 1390.55 107.18C1389.12 104.89 1387.17 103.04 1384.77 101.68C1379.94 98.9398 1373.53 98.9598 1368.73 101.68C1366.34 103.04 1364.39 104.89 1362.96 107.18C1361.51 109.5 1360.77 112.1 1360.77 114.91C1360.77 117.71 1361.5 120.31 1362.96 122.62C1364.4 124.91 1366.34 126.76 1368.74 128.12ZM1376.76 103.85C1378.92 103.85 1380.91 104.36 1382.68 105.35C1384.46 106.35 1385.89 107.71 1386.95 109.39C1388 111.06 1388.51 112.87 1388.51 114.92C1388.51 116.96 1388 118.76 1386.94 120.43C1385.88 122.11 1384.45 123.47 1382.67 124.48C1379.14 126.48 1374.36 126.49 1370.83 124.48C1369.05 123.48 1367.62 122.11 1366.56 120.44C1365.51 118.77 1365 116.97 1365 114.93C1365 112.88 1365.51 111.07 1366.56 109.4C1367.61 107.73 1369.05 106.37 1370.83 105.36C1372.61 104.35 1374.61 103.85 1376.76 103.85Z" fill="black"/>
<path d="M885.26 64.8899C881.62 67.3699 880.73 70.5499 884.13 72.5099C886.22 73.7099 888.59 74.3999 890.85 75.2999C891.38 75.5099 891.95 75.6299 892.5 75.7899C892.47 75.9499 892.45 76.1099 892.42 76.2799C889.82 75.9199 887.2 75.6899 884.64 75.1599C879.9 74.1699 875.43 72.3799 871.52 69.3899C870.37 68.5099 869.33 67.3099 868.6 66.0399C867.87 64.7699 868.59 63.5599 869.78 63.6999C869.26 63.6899 868.75 63.6599 868.23 63.6599C865.38 63.6599 862.56 63.7999 859.76 63.9999C859.77 64.0499 859.78 64.1099 859.8 64.1599C859.02 64.7399 858.19 65.2599 857.47 65.9099C854.72 68.3699 853.99 71.1399 856.03 74.2099C857.83 76.9299 860.1 79.4799 862.61 81.5199C869.5 87.1299 877.53 90.4699 885.9 92.9499C889.81 94.1099 893.79 94.9999 897.74 96.0099C891.19 95.9199 884.76 95.0099 878.41 93.4599C867.73 90.8599 857.49 87.0699 848.5 80.4099C846.1 78.6299 844.03 76.2199 842.24 73.7699C840.6 71.5299 840.84 68.9599 842.23 66.5699C839.19 67.2499 836.17 68.0299 833.22 68.9399C832.71 69.3999 832.22 69.8699 831.77 70.3899C827.86 74.8599 827.72 80.1399 831.33 85.6999C834.91 91.1999 839.84 95.2099 845.11 98.7899C859.42 108.52 875.26 114.31 891.9 117.96C896.4 118.95 900.96 119.69 905.48 120.77C901.78 120.52 898.06 120.38 894.37 120.01C876 118.16 858.32 113.59 841.61 105.38C833.67 101.48 825.93 97.1699 819.89 90.3299C817.38 87.4899 815.32 84.3899 815.47 80.2399C815.54 78.2499 816.1 76.6099 817.05 75.2799C815.17 76.1799 813.33 77.1399 811.51 78.1299C811.52 78.1399 811.52 78.1499 811.53 78.1599C811.17 78.4099 810.76 78.5999 810.47 78.9099C805.62 84.0999 804.59 91.1499 807.73 97.7499C810.26 103.07 814.07 107.34 818.4 111.13C829.74 121.06 842.74 128.08 856.44 133.75C874.54 141.23 893.33 145.82 912.74 147.74C913.03 147.77 913.33 147.81 913.62 147.88C913.84 147.94 914.06 148.05 914.59 148.26C902.73 148.21 891.34 147.23 880.04 145.23C859.05 141.51 839 134.91 820.19 124.47C814.01 121.04 808.02 117.27 802.97 112.2C800.48 109.7 798.13 106.94 796.28 103.92C792.86 98.3599 793.29 92.1999 796.91 87.5899C792.91 90.6199 789.12 93.8999 785.54 97.3999C785.03 98.5399 784.54 99.7499 784.21 101.01C782.59 107.14 783.95 112.87 787.08 118.24C791.83 126.38 798.54 132.55 805.94 137.96C824.52 151.56 845.13 160.68 866.89 167.21C882.41 171.86 898.26 174.71 914.36 176.04C916 176.18 917.64 176.25 919.28 176.35C902.26 177.05 885.43 175.63 868.72 172.26C848.62 168.2 829.3 161.76 810.91 152.45C801.14 147.5 791.75 141.91 783.82 134.08C779.6 129.91 775.71 125.44 774.29 119.32C773.53 116.05 773.5 112.94 774.32 110.06C771.99 113.09 769.81 116.24 767.79 119.49C767.59 120.35 767.42 121.2 767.31 122.04C766.41 129.12 768.4 135.49 772.09 141.36C776.91 149.02 783.26 155.15 790.29 160.56C805.33 172.15 821.98 180.62 839.43 187.52C860.62 195.9 882.5 201.27 905.1 203.43C911.35 204.03 917.62 204.33 923.88 204.76C923.88 204.85 923.89 204.93 923.89 205.02C918.64 205.09 913.39 205.25 908.15 205.23C886.99 205.14 866.24 201.96 845.83 196.28C826.83 190.99 808.55 183.8 791.39 173.75C782.01 168.26 773.23 161.92 766.34 153.18C762.33 148.1 759.8 142.41 760.01 135.69C760.03 135.04 760.11 134.41 760.2 133.78C758.62 137.33 757.21 140.96 755.97 144.68C755.95 146.23 755.96 147.76 756.14 149.26C757.24 158.13 761.69 165.28 767.35 171.75C776.32 182.02 787.22 189.69 798.79 196.43C820.22 208.9 843.15 217.31 867.05 222.99C885.82 227.45 904.81 230.12 924.13 229.63C924.72 229.62 925.31 229.61 925.9 229.6C914.39 231.11 902.8 231.26 891.18 230.53C870.08 229.21 849.49 225.1 829.37 218.46C812.17 212.79 795.53 205.74 780.13 195.85C773.92 191.86 768.2 187.24 762.91 181.99C757.86 176.99 755.04 170.98 753.86 163.92C753.24 160.21 753.19 156.58 753.54 152.98C752.21 158.25 751.24 163.67 750.65 169.2C750.8 176.1 752.92 182.42 756.37 188.35C760.87 196.08 767.12 202.17 773.87 207.72C788.05 219.38 804.04 227.74 820.77 234.66C842.04 243.46 864.11 249.19 886.83 252.11C898.73 253.64 910.68 254.26 922.67 253.26C923.08 253.23 923.49 253.24 923.91 253.24C913.96 254.95 903.93 255.53 893.86 255.26C860.86 254.38 829.38 246.59 799.24 232.83C787 227.25 775.52 220.38 765.17 211.48C755.95 203.55 751.4 193.5 750.73 181.34C750.58 178.61 750.44 175.87 750.32 173.14C750.11 176.04 749.96 178.95 749.96 181.9C749.96 186.49 750.25 191 750.76 195.46C750.75 194.52 750.73 193.57 750.72 192.63C751.39 206.48 758.72 216.51 767.88 225.45C778.59 235.9 791.13 243.53 804.37 250C828.3 261.7 853.48 268.93 879.74 272.08C891.72 273.52 903.73 273.96 915.75 272.48C916.1 272.44 916.45 272.47 916.8 272.55C908.12 274.26 899.35 274.93 890.53 274.97C868.61 275.05 847.26 271.27 826.34 264.65C813.01 260.43 800.05 255.22 787.82 248.24C781.59 244.68 775.67 240.66 770.16 235.97C762.74 229.65 757.41 221.91 754.4 212.45C753.81 210.59 753.18 208.74 752.62 206.88C755.03 218.08 759 228.69 764.33 238.47C763.83 237.5 763.29 236.57 762.84 235.56C761.99 233.62 761.47 231.49 761.06 229.33C761.75 231.17 762.28 233.12 763.18 234.82C764.09 236.54 765.3 238.08 766.49 239.57C767.72 241.12 769.09 242.53 770.42 243.97C771.71 245.37 772.99 246.8 774.34 248.12C783.63 257.17 794.18 263.9 805.31 269.51C822.35 278.09 840.15 283.68 858.64 286.33C869.48 287.89 880.34 288.39 891.21 286.8C891.53 286.75 891.85 286.79 892.17 286.78C882.29 289.05 872.3 289.57 862.26 288.85C840.97 287.34 820.58 281.5 801.05 271.82C792.68 267.67 784.74 262.65 777.68 256C773.92 252.45 770.56 248.52 767.65 244.17C788.5 277.78 825.72 300.18 868.19 300.18C933.5 300.18 986.44 247.24 986.44 181.93C986.49 122.37 942.5 73.1399 885.26 64.8899Z" fill="#0F6838"/>
</svg>
