<svg xmlns="http://www.w3.org/2000/svg" width="167.648" height="125.65" viewBox="1422.56 5547.828 167.648 125.65"><g data-name="Group 22"><path d="M1521.57 5657.193c6.406-6.712 11.44-12.965 15.1-18.76 3.66-5.797 5.49-10.526 5.49-14.187 0-2.134-.762-4.118-2.287-5.948-1.22-1.83-3.203-3.814-5.949-5.949-4.27-3.355-7.627-6.864-10.066-10.525-2.441-3.66-3.662-8.54-3.662-14.643 0-9.456 2.898-17.083 8.695-22.879 5.796-6.101 13.118-9.153 21.965-9.153 9.456 0 17.083 3.052 22.88 9.153 6.1 5.796 9.151 13.423 9.151 22.879 0 11.898-5.033 25.015-15.101 39.353-9.762 14.034-22.88 26.54-39.353 37.524l-6.863-6.865Zm-88.774 0c6.407-6.712 11.44-12.965 15.1-18.76 3.661-5.797 5.492-10.526 5.492-14.187 0-2.134-.763-4.118-2.288-5.948-1.22-1.83-3.203-3.814-5.949-5.949-4.27-3.355-7.627-6.864-10.067-10.525-2.44-3.66-3.661-8.54-3.661-14.643 0-9.456 2.898-17.083 8.695-22.879 5.796-6.101 13.117-9.153 21.964-9.153 9.457 0 17.084 3.052 22.88 9.153 6.1 5.796 9.152 13.423 9.152 22.879 0 11.898-5.034 25.015-15.101 39.353-9.762 14.034-22.88 26.54-39.353 37.524l-6.864-6.865Z" fill="#cdf3ff" fill-rule="evenodd" data-name="”"/><path d="m1438.728 5673.478-16.168-16.165 4.94-5.175c6.042-6.33 10.822-12.256 14.206-17.616 3.935-6.231 4.36-9.262 4.36-10.276 0-.179 0-.553-.591-1.26l-.25-.301-.217-.326c-.438-.657-1.586-2.08-4.352-4.23l-.014-.011-.014-.012c-4.862-3.82-8.777-7.932-11.636-12.22-1.684-2.525-2.947-5.45-3.756-8.692-.753-3.01-1.135-6.379-1.135-10.013 0-5.576.887-10.747 2.636-15.37 1.797-4.754 4.535-8.999 8.137-12.619 3.587-3.76 7.728-6.629 12.306-8.53 4.53-1.88 9.544-2.834 14.902-2.834 5.604 0 10.802.935 15.449 2.78 4.755 1.886 8.998 4.751 12.609 8.515 3.764 3.61 6.63 7.853 8.516 12.609 1.844 4.646 2.779 9.844 2.779 15.45 0 3.442-.364 7.002-1.083 10.58-.706 3.514-1.775 7.147-3.176 10.797-2.72 7.088-6.81 14.547-12.161 22.17-5.139 7.385-11.234 14.456-18.115 21.014-6.836 6.519-14.635 12.711-23.178 18.406l-4.994 3.33Zm23.354-118.329c-4.402 0-8.482.77-12.126 2.288-3.643 1.518-6.953 3.827-9.838 6.865a28.44 28.44 0 0 0-6.522 10.067c-1.442 3.797-2.173 8.108-2.173 12.812 0 3.035.308 5.807.915 8.238.608 2.43 1.532 4.584 2.746 6.405 2.428 3.643 5.815 7.185 10.067 10.525 2.73 2.123 4.732 4.124 5.949 5.95 1.518 1.82 2.287 3.822 2.287 5.947 0 3.644-1.847 8.417-5.49 14.186-3.647 5.774-8.728 12.085-15.101 18.76l6.864 6.865c8.197-5.464 15.665-11.391 22.193-17.617 6.527-6.224 12.3-12.921 17.16-19.905 5.011-7.137 8.822-14.066 11.325-20.593 2.506-6.526 3.776-12.839 3.776-18.76 0-4.706-.77-9.017-2.289-12.813-1.518-3.796-3.827-7.183-6.863-10.067-2.885-3.037-6.272-5.347-10.068-6.865-3.795-1.518-8.106-2.288-12.812-2.288Zm65.418 118.33v-.001l-16.165-16.165 4.938-5.175c6.043-6.33 10.822-12.257 14.206-17.616 3.935-6.23 4.36-9.261 4.36-10.276 0-.179 0-.552-.59-1.26l-.25-.301-.218-.326c-.437-.656-1.584-2.079-4.352-4.23l-.014-.011-.014-.012c-4.862-3.82-8.777-7.932-11.636-12.22-1.682-2.523-2.946-5.448-3.756-8.692-.753-3.013-1.134-6.381-1.134-10.013 0-5.576.886-10.748 2.635-15.37 1.798-4.754 4.536-9 8.137-12.62 3.588-3.759 7.729-6.628 12.307-8.528 4.531-1.881 9.545-2.835 14.902-2.835 5.604 0 10.801.935 15.448 2.78 4.756 1.886 8.999 4.751 12.61 8.515 3.764 3.612 6.629 7.854 8.516 12.61 1.843 4.647 2.778 9.845 2.778 15.448 0 3.443-.365 7.003-1.084 10.581-.706 3.514-1.774 7.147-3.174 10.797-2.72 7.088-6.812 14.546-12.161 22.168-5.14 7.385-11.234 14.456-18.115 21.017-6.834 6.515-14.632 12.707-23.18 18.405l-4.993 3.33Zm23.356-118.33c-4.403 0-8.483.77-12.127 2.288-3.644 1.519-6.954 3.829-9.838 6.865a28.433 28.433 0 0 0-6.52 10.067c-1.443 3.795-2.174 8.106-2.174 12.812 0 3.037.308 5.808.915 8.237.607 2.429 1.53 4.584 2.745 6.406 2.43 3.646 5.818 7.187 10.068 10.525 2.733 2.125 4.734 4.127 5.948 5.95 1.518 1.821 2.288 3.823 2.288 5.947 0 3.644-1.847 8.417-5.49 14.186-3.645 5.77-8.726 12.082-15.102 18.76l6.864 6.865c8.197-5.464 15.664-11.391 22.194-17.617 6.528-6.224 12.301-12.921 17.16-19.905 5.01-7.136 8.82-14.064 11.325-20.592 2.505-6.528 3.775-12.84 3.775-18.762 0-4.706-.77-9.017-2.288-12.812-1.519-3.796-3.828-7.183-6.864-10.067-2.884-3.037-6.271-5.346-10.067-6.865-3.796-1.518-8.106-2.288-12.812-2.288Z" fill="#36b4ff" fill-rule="evenodd" data-name="” (Stroke)"/></g></svg>