<svg xmlns="http://www.w3.org/2000/svg" width="1322" height="1322" viewBox="0 0 1322 1322">
  <path id="Ellipse_91_Stroke_" data-name="Ellipse 91 (Stroke)" d="M661,1322a671.683,671.683,0,0,1-67.584-3.413,662.736,662.736,0,0,1-65.631-10.016c-21.3-4.358-42.608-9.838-63.347-16.288-20.507-6.379-40.94-13.857-60.73-22.228-19.608-8.293-39.048-17.658-57.781-27.834-18.6-10.1-36.935-21.243-54.5-33.109-17.48-11.809-34.6-24.612-50.886-38.052C224.3,1157.652,208.5,1143.3,193.6,1128.4s-29.254-30.693-42.662-46.94c-13.441-16.287-26.243-33.407-38.052-50.886-11.866-17.564-23.006-35.9-33.109-54.5C69.6,957.339,60.238,937.9,51.945,918.291c-8.371-19.79-15.849-40.223-22.228-60.73-6.45-20.739-11.93-42.051-16.288-63.347A662.694,662.694,0,0,1,3.413,728.583a670.9,670.9,0,0,1,0-135.167,662.7,662.7,0,0,1,10.016-65.631c4.358-21.3,9.838-42.608,16.288-63.346,6.378-20.507,13.857-40.939,22.228-60.73C60.238,384.1,69.6,364.661,79.779,345.928c10.1-18.6,21.243-36.935,33.109-54.5,11.809-17.479,24.611-34.6,38.052-50.886C164.349,224.3,178.7,208.5,193.6,193.6s30.694-29.254,46.94-42.662c16.286-13.44,33.406-26.243,50.886-38.052,17.563-11.865,35.9-23.005,54.5-33.109C364.66,69.6,384.1,60.239,403.709,51.945c19.79-8.371,40.223-15.849,60.73-22.228,20.738-6.45,42.051-11.93,63.347-16.288A662.7,662.7,0,0,1,593.417,3.413a670.9,670.9,0,0,1,135.167,0,662.685,662.685,0,0,1,65.631,10.016c21.295,4.358,42.608,9.838,63.346,16.288,20.508,6.379,40.94,13.857,60.73,22.228,19.609,8.294,39.05,17.659,57.781,27.834,18.6,10.1,36.936,21.244,54.5,33.109,17.479,11.809,34.6,24.611,50.886,38.052C1097.7,164.348,1113.5,178.7,1128.4,193.6s29.254,30.694,42.662,46.94c13.441,16.286,26.243,33.407,38.052,50.886,11.866,17.564,23.005,35.9,33.109,54.5,10.176,18.733,19.541,38.173,27.834,57.781,8.371,19.79,15.849,40.223,22.228,60.73,6.45,20.738,11.93,42.051,16.288,63.346a662.662,662.662,0,0,1,10.016,65.631,670.9,670.9,0,0,1,0,135.167,662.661,662.661,0,0,1-10.016,65.631c-4.358,21.3-9.838,42.608-16.288,63.347-6.379,20.507-13.857,40.94-22.228,60.73-8.293,19.608-17.658,39.048-27.834,57.781-10.1,18.6-21.243,36.935-33.109,54.5-11.809,17.479-24.611,34.6-38.052,50.886-13.408,16.247-27.762,32.04-42.662,46.94s-30.694,29.255-46.94,42.662c-16.287,13.441-33.408,26.244-50.886,38.052-17.565,11.866-35.9,23.006-54.5,33.109-18.732,10.176-38.173,19.541-57.781,27.834-19.79,8.371-40.222,15.849-60.73,22.228-20.739,6.45-42.052,11.93-63.346,16.288a662.719,662.719,0,0,1-65.631,10.016A671.684,671.684,0,0,1,661,1322ZM661,6.669a664.824,664.824,0,0,0-66.9,3.378,656,656,0,0,0-64.969,9.916c-21.081,4.314-42.179,9.739-62.707,16.124-20.3,6.314-40.526,13.717-60.117,22-19.409,8.209-38.654,17.48-57.2,27.554-18.411,10-36.562,21.029-53.95,32.775-17.3,11.689-34.25,24.362-50.372,37.668-16.083,13.273-31.717,27.482-46.466,42.232s-28.959,30.383-42.232,46.466c-13.306,16.123-25.979,33.071-37.668,50.372-11.747,17.387-22.774,35.538-32.775,53.95C75.571,367.651,66.3,386.9,58.091,406.3c-8.286,19.591-15.689,39.817-22,60.117-6.385,20.528-11.81,41.626-16.124,62.707A656.019,656.019,0,0,0,10.049,594.1a664.143,664.143,0,0,0,0,133.8,656.015,656.015,0,0,0,9.916,64.969c4.314,21.081,9.739,42.179,16.124,62.707,6.314,20.3,13.717,40.526,22,60.117,8.209,19.409,17.48,38.654,27.554,57.2,10,18.411,21.029,36.562,32.775,53.95,11.689,17.3,24.362,34.25,37.668,50.372,13.273,16.083,27.482,31.717,42.232,46.466s30.383,28.959,46.466,42.232c16.123,13.306,33.071,25.979,50.372,37.668,17.387,11.747,35.538,22.774,53.95,32.775,18.544,10.074,37.788,19.344,57.2,27.554,19.591,8.286,39.817,15.689,60.117,22,20.528,6.385,41.626,11.81,62.707,16.124a656.008,656.008,0,0,0,64.969,9.916,664.147,664.147,0,0,0,133.8,0,656,656,0,0,0,64.969-9.916c21.081-4.314,42.179-9.739,62.708-16.124,20.3-6.314,40.526-13.717,60.117-22,19.409-8.209,38.654-17.48,57.2-27.554,18.411-10,36.563-21.029,53.95-32.775,17.3-11.689,34.25-24.362,50.372-37.668,16.083-13.273,31.717-27.482,46.467-42.232s28.959-30.383,42.232-46.466c13.306-16.123,25.979-33.07,37.668-50.372,11.747-17.387,22.774-35.538,32.775-53.95,10.074-18.544,19.344-37.788,27.554-57.2,8.286-19.591,15.689-39.817,22-60.117,6.385-20.528,11.81-41.626,16.124-62.707a655.968,655.968,0,0,0,9.916-64.969,664.123,664.123,0,0,0,0-133.8,655.972,655.972,0,0,0-9.916-64.969c-4.314-21.081-9.738-42.179-16.124-62.707-6.314-20.3-13.717-40.526-22-60.117-8.209-19.409-17.48-38.654-27.554-57.2-10-18.411-21.029-36.562-32.775-53.95-11.689-17.3-24.362-34.25-37.668-50.372-13.273-16.083-27.482-31.717-42.232-46.466s-30.383-28.959-46.467-42.232c-16.123-13.306-33.07-25.979-50.372-37.668-17.387-11.747-35.538-22.774-53.95-32.775C954.349,75.57,935.1,66.3,915.7,58.09c-19.591-8.286-39.817-15.689-60.117-22-20.528-6.385-41.626-11.81-62.708-16.124A656,656,0,0,0,727.9,10.048,664.824,664.824,0,0,0,661,6.669Z" fill="#e5e5e5" opacity="0.8"/>
</svg>
