<svg id="memphis" xmlns="http://www.w3.org/2000/svg" width="251.975" height="37.33" viewBox="0 0 251.975 37.33">
  <circle id="Ellipse_6" data-name="Ellipse 6" cx="3.333" cy="3.333" r="3.333" transform="translate(0 30.664)" fill="#fff" opacity="0.561"/>
  <circle id="Ellipse_12" data-name="Ellipse 12" cx="3.333" cy="3.333" r="3.333" transform="translate(30.664 30.664)" fill="#fff" opacity="0.561"/>
  <circle id="Ellipse_18" data-name="Ellipse 18" cx="3.333" cy="3.333" r="3.333" transform="translate(61.327 30.664)" fill="#fff" opacity="0.561"/>
  <circle id="Ellipse_24" data-name="Ellipse 24" cx="3.333" cy="3.333" r="3.333" transform="translate(91.991 30.664)" fill="#fff" opacity="0.561"/>
  <circle id="Ellipse_30" data-name="Ellipse 30" cx="3.333" cy="3.333" r="3.333" transform="translate(122.655 30.664)" fill="#fff" opacity="0.561"/>
  <circle id="Ellipse_36" data-name="Ellipse 36" cx="3.333" cy="3.333" r="3.333" transform="translate(153.318 30.664)" fill="#fff" opacity="0.561"/>
  <circle id="Ellipse_42" data-name="Ellipse 42" cx="3.333" cy="3.333" r="3.333" transform="translate(183.982 30.664)" fill="#fff" opacity="0.561"/>
  <circle id="Ellipse_48" data-name="Ellipse 48" cx="3.333" cy="3.333" r="3.333" transform="translate(214.646 30.664)" fill="#fff" opacity="0.561"/>
  <circle id="Ellipse_54" data-name="Ellipse 54" cx="3.333" cy="3.333" r="3.333" transform="translate(245.309 30.664)" fill="#fff" opacity="0.561"/>
  <circle id="Ellipse_7" data-name="Ellipse 7" cx="3.333" cy="3.333" r="3.333" fill="#fff" opacity="0.561"/>
  <circle id="Ellipse_13" data-name="Ellipse 13" cx="3.333" cy="3.333" r="3.333" transform="translate(30.664)" fill="#fff" opacity="0.561"/>
  <circle id="Ellipse_19" data-name="Ellipse 19" cx="3.333" cy="3.333" r="3.333" transform="translate(61.327)" fill="#fff" opacity="0.561"/>
  <circle id="Ellipse_25" data-name="Ellipse 25" cx="3.333" cy="3.333" r="3.333" transform="translate(91.991)" fill="#fff" opacity="0.561"/>
  <circle id="Ellipse_31" data-name="Ellipse 31" cx="3.333" cy="3.333" r="3.333" transform="translate(122.655)" fill="#fff" opacity="0.561"/>
  <circle id="Ellipse_37" data-name="Ellipse 37" cx="3.333" cy="3.333" r="3.333" transform="translate(153.318)" fill="#fff" opacity="0.561"/>
  <circle id="Ellipse_43" data-name="Ellipse 43" cx="3.333" cy="3.333" r="3.333" transform="translate(183.982)" fill="#fff" opacity="0.561"/>
  <circle id="Ellipse_49" data-name="Ellipse 49" cx="3.333" cy="3.333" r="3.333" transform="translate(214.646)" fill="#fff" opacity="0.561"/>
  <circle id="Ellipse_55" data-name="Ellipse 55" cx="3.333" cy="3.333" r="3.333" transform="translate(245.309)" fill="#fff" opacity="0.561"/>
</svg>
